<svg id="9b843d92-9856-431b-8ef1-bf9f3746a957" data-name="Vectors" xmlns="http://www.w3.org/2000/svg" xmlns:xlink="http://www.w3.org/1999/xlink" width="992" height="160">
  <defs>
    <linearGradient id="11a801b3-dfa9-4ae0-8154-55658212fe26" x1="288" y1="73.565" x2="304" y2="73.565" gradientUnits="userSpaceOnUse">
      <stop offset="0" stop-color="#fff" stop-opacity="0"/>
      <stop offset="0.007" stop-color="#fffff6" stop-opacity="0.036"/>
      <stop offset="0.048" stop-color="#feffc8" stop-opacity="0.216"/>
      <stop offset="0.093" stop-color="#fdff9d" stop-opacity="0.385"/>
      <stop offset="0.142" stop-color="#fcff77" stop-opacity="0.533"/>
      <stop offset="0.195" stop-color="#fbff57" stop-opacity="0.66"/>
      <stop offset="0.254" stop-color="#faff3b" stop-opacity="0.767"/>
      <stop offset="0.32" stop-color="#faff25" stop-opacity="0.853"/>
      <stop offset="0.397" stop-color="#f9ff14" stop-opacity="0.92"/>
      <stop offset="0.493" stop-color="#f9ff09" stop-opacity="0.966"/>
      <stop offset="0.627" stop-color="#f9ff02" stop-opacity="0.993"/>
      <stop offset="1" stop-color="#f9ff00"/>
    </linearGradient>
    <linearGradient id="204db920-968a-4505-b909-c073ecdea796" x1="263" y1="109" x2="263" y2="99" gradientUnits="userSpaceOnUse">
      <stop offset="0" stop-color="#fff"/>
      <stop offset="1"/>
    </linearGradient>
    <linearGradient id="89606640-ae5c-402b-8e87-16219bd26b70" x1="935" x2="935" xlink:href="#204db920-968a-4505-b909-c073ecdea796"/>
  </defs>
  <title>ButtonIcons</title>
  <path d="M28.813,1a2.188,2.188,0,0,1,1.75,3.5l-.875.875L26.626,2.313l.875-.875A2.177,2.177,0,0,1,28.813,1ZM17.876,11.063,17,15l3.938-.875,8.094-8.094L25.97,2.97Zm8.908-5.092L20.659,12.1l-.755-.754L26.03,5.218Z" fill="#7f7f7f"/>
  <g id="1490a35f-aea4-40c0-aecb-09023e87e5a1" data-name="remove_2">
    <path d="M74.482,8l4.389-4.39a.449.449,0,0,0,0-.629L77.019,1.129a.44.44,0,0,0-.623,0L72,5.525l-4.4-4.4a.44.44,0,0,0-.622,0L65.128,2.981a.45.45,0,0,0,0,.629L69.525,8l-4.4,4.4a.441.441,0,0,0,0,.622l1.853,1.853a.449.449,0,0,0,.629,0L72,10.482l4.39,4.39a.45.45,0,0,0,.629,0l1.852-1.853a.448.448,0,0,0,0-.629Z" fill="#7f7f7f"/>
  </g>
  <path d="M95.928,9.671a.57.57,0,0,1-.568.569H90.239v5.19a.57.57,0,0,1-.569.57H86.258a.57.57,0,0,1-.569-.57V10.24h-5.12A.57.57,0,0,1,80,9.671V6.257a.57.57,0,0,1,.569-.568h5.12V.57A.57.57,0,0,1,86.258,0H89.67a.57.57,0,0,1,.569.57V5.689H95.36a.569.569,0,0,1,.568.568Z" fill="#7f7f7f"/>
  <path d="M116,1h8V3h-8Zm11,3H113a1,1,0,0,0-1,1v5a1,1,0,0,0,1,1h3v4h8V11h3a1,1,0,0,0,1-1V5A1,1,0,0,0,127,4Zm-4,10h-6V9h6Zm4.225-8.5a.725.725,0,1,1-.725-.725A.725.725,0,0,1,127.225,5.5Z" fill="#7f7f7f"/>
  <path d="M159.343,13.616l-3.79-3.224a1.692,1.692,0,0,0-1.149-.5,5.992,5.992,0,1,0-.671.672,1.691,1.691,0,0,0,.5,1.149l3.224,3.79a1.344,1.344,0,1,0,1.888-1.889ZM149.839,10a4,4,0,1,1,4-4A4,4,0,0,1,149.839,10Z" fill="#7f7f7f"/>
  <path d="M254.973,0H242.133V2.133h-1.561a.545.545,0,0,0-.573.5V3.7a.6.6,0,0,0,.573.565h1.561V5.334h-1.561a.545.545,0,0,0-.573.5V6.9a.6.6,0,0,0,.573.565h1.561V8.533h-1.561a.545.545,0,0,0-.573.5V10.1a.6.6,0,0,0,.573.564h1.561v1.067h-1.561a.545.545,0,0,0-.573.5V13.3a.6.6,0,0,0,.573.564h1.561V16h12.839A1.061,1.061,0,0,0,256,14.9V1.036A1.008,1.008,0,0,0,254.973,0Zm-9.639,14.934H243.2V13.867h.573a.53.53,0,0,0,.494-.564V12.236a.477.477,0,0,0-.494-.5H243.2V10.666h.573a.53.53,0,0,0,.494-.564V9.036a.477.477,0,0,0-.494-.5H243.2V7.467h.573a.53.53,0,0,0,.494-.564V5.836a.477.477,0,0,0-.494-.5H243.2V4.267h.573a.53.53,0,0,0,.494-.564V2.636a.476.476,0,0,0-.494-.5H243.2V1.067h2.133Z" fill="#7f7f7f"/>
  <g>
    <g id="da9f7c4f-4f91-4f94-bcdb-24eacd00a837" data-name="right_arrow">
      <path d="M286,8l-4.322-3.4-.121-1.458c0-.164.062-.234.191-.134l6.064,4.807c.131.1.056.265-.074.364l-6.015,4.807c-.129.1-.166,0-.166-.167l.1-1.489" fill="#7f7f7f"/>
    </g>
    <g id="dd7a1a9f-318f-402e-97b0-18f8ccd28c3f" data-name="right_arrow">
      <path d="M277.242,12.874V9.788h-5.056a.312.312,0,0,1-.305-.306V6.518a.311.311,0,0,1,.305-.3h5.056V3.127c0-.164.111-.216.241-.116L283.7,7.818a.219.219,0,0,1,0,.364l-6.211,4.807C277.355,13.09,277.242,13.037,277.242,12.874Z" fill="#7f7f7f"/>
    </g>
  </g>
  <g id="73dece2f-6390-431b-8858-dba01b6cea19" data-name="refresh">
    <path d="M289.874,8.373,288,7.9a7.982,7.982,0,0,1,13.94-5.234l.031.037,1.306-1.061c.142-.116.264-.06.272.123l.167,4.33a.237.237,0,0,1-.31.252L299.2,5.3c-.178-.044-.207-.175-.065-.29l1.277-1.038a5.985,5.985,0,0,0-10.409,4.416Zm14.1-.23-2-.5a5.986,5.986,0,0,1-10.411,4.387l1.278-1.039c.141-.115.113-.246-.066-.29l-4.2-1.051a.236.236,0,0,0-.31.252l.166,4.329c.007.183.13.239.273.124l1.3-1.062.032.037A7.98,7.98,0,0,0,303.97,8.143Z" fill="#7f7f7f"/>
  </g>
  <g id="157a190a-5cf7-46b6-a20b-a6df00c52201" data-name="right_arrow">
    <path d="M23.2,30.546V26.4H16.41a.419.419,0,0,1-.41-.41V22.008a.418.418,0,0,1,.41-.409H23.2V17.453c0-.22.149-.29.323-.155l8.345,6.457a.294.294,0,0,1,0,.489L23.526,30.7C23.352,30.836,23.2,30.766,23.2,30.546Z" fill="#7f7f7f"/>
  </g>
  <g id="598c8e2c-76c8-493d-b789-1815cb96f1a3" data-name="right_arrow">
    <path d="M8.473,30.7.132,24.245a.294.294,0,0,1,0-.489L8.474,17.3c.174-.134.323-.065.323.155V21.6H15.59a.418.418,0,0,1,.41.409v3.982a.419.419,0,0,1-.41.41H8.8v4.145C8.8,30.766,8.647,30.836,8.473,30.7Z" fill="#7f7f7f"/>
  </g>
  <g id="31dd8f2e-0e7c-484e-9951-ec055b52ef69" data-name="right_arrow">
    <path d="M46.546,24.8H42.4V31.59a.419.419,0,0,1-.41.41H38.008a.417.417,0,0,1-.408-.41V24.8H33.453c-.22,0-.289-.15-.155-.323l6.457-8.345a.294.294,0,0,1,.489,0L46.7,24.473C46.836,24.647,46.766,24.8,46.546,24.8Z" fill="#7f7f7f"/>
  </g>
  <g id="f640f084-1ddf-44c7-88a0-d59e6ecaa851" data-name="right_arrow">
    <path d="M62.794,23.526l-6.457,8.342a.294.294,0,0,1-.489,0L49.39,23.525c-.135-.174-.065-.323.155-.323h4.145V16.41A.418.418,0,0,1,54.1,16h3.982a.419.419,0,0,1,.41.41V23.2h4.145C62.858,23.2,62.928,23.352,62.794,23.526Z" fill="#7f7f7f"/>
  </g>
  <path d="M157,18l0,0V30l0,0H147l0,0V18l0,0h-2V30a2.006,2.006,0,0,0,2,2h10a2.006,2.006,0,0,0,2-2V18Zm-3,0V17a1,1,0,0,0-1-1h-2a1,1,0,0,0-1,1v1h-2v2h8V18Z" fill="#7f7f7f"/>
  <path d="M175,19.77h-4v-1a1,1,0,0,0-1-1h-4a1,1,0,0,0-1,1v1h-4a1,1,0,0,0-1,1v9a1,1,0,0,0,1,1h14a1,1,0,0,0,1-1v-9A1,1,0,0,0,175,19.77Zm-9-1,0,0h4l0,0v1h-4Zm9,5h-2v1.5a.5.5,0,0,1-.5.5h-1a.5.5,0,0,1-.5-.5v-1.5h-6v1.5a.5.5,0,0,1-.5.5h-1a.5.5,0,0,1-.5-.5v-1.5h-2v-1h14Z" fill="#7f7f7f"/>
  <path d="M315.61,22H313.5L312,24.2,310.5,22H308.39l2.534,3.789L308.065,30h4.1V28.569h-.946L312,27.4l1.741,2.6h2.194l-2.859-4.211Zm2.506-2.884-2.233-2.232A3.474,3.474,0,0,0,313.75,16h-7.5A1.254,1.254,0,0,0,305,17.25v13.5A1.254,1.254,0,0,0,306.25,32h11.5A1.254,1.254,0,0,0,319,30.75v-9.5A3.479,3.479,0,0,0,318.116,19.116Zm-.707.707a1.366,1.366,0,0,1,.145.177H315V17.446a1.365,1.365,0,0,1,.177.145ZM318,30.75a.253.253,0,0,1-.25.25h-11.5a.253.253,0,0,1-.25-.25V17.25a.253.253,0,0,1,.25-.25h7.5a1.4,1.4,0,0,1,.25.026V21h3.974a1.358,1.358,0,0,1,.026.25Z" fill="#7f7f7f"/>
  <path d="M31.8,44.559,25.358,33.951a1.556,1.556,0,0,0-2.717-.032L16.2,44.575A1.642,1.642,0,0,0,17.558,47H30.442A1.654,1.654,0,0,0,31.8,44.559ZM24,46.35a1.57,1.57,0,1,1,1.57-1.57A1.57,1.57,0,0,1,24,46.35ZM25.079,42H22.92l-.491-4.891A1.649,1.649,0,0,1,24,35.449a1.69,1.69,0,0,1,1.57,1.705Z" fill="#7f7f7f"/>
  <g>
    <path d="M47.47,45.456l-2.976-2.372a1.805,1.805,0,0,0-1.226-.532,6.384,6.384,0,1,0-.715.717,1.8,1.8,0,0,0,.532,1.226l2.372,2.976a1.433,1.433,0,1,0,2.013-2.014ZM38.4,42.665A4.266,4.266,0,1,1,42.666,38.4,4.267,4.267,0,0,1,38.4,42.665Z" fill="#7f7f7f"/>
    <path d="M41.156,39a.19.19,0,0,1-.189.189H39.26v1.73a.189.189,0,0,1-.19.189H37.932a.189.189,0,0,1-.189-.189v-1.73H36.037a.19.19,0,0,1-.19-.189V37.864a.189.189,0,0,1,.19-.188h1.706V35.968a.189.189,0,0,1,.189-.19h1.139a.189.189,0,0,1,.19.19v1.707h1.706a.189.189,0,0,1,.189.188Z" fill="#7f7f7f"/>
  </g>
  <g>
    <path d="M63.47,45.456l-2.976-2.372a1.805,1.805,0,0,0-1.226-.532,6.384,6.384,0,1,0-.715.717,1.8,1.8,0,0,0,.532,1.226l2.372,2.976a1.433,1.433,0,1,0,2.013-2.014ZM54.4,42.665A4.266,4.266,0,1,1,58.666,38.4,4.267,4.267,0,0,1,54.4,42.665Z" fill="#7f7f7f"/>
    <path d="M53.742,39.191H52.037a.19.19,0,0,1-.19-.189V37.864a.189.189,0,0,1,.19-.188h4.93a.189.189,0,0,1,.189.188V39a.19.19,0,0,1-.189.189H53.742Z" fill="#7f7f7f"/>
  </g>
  <polygon points="69.726 45.931 65 39.779 67.095 37.594 69.727 40.938 77.975 34.206 79 35.232 69.726 45.931" fill="#7f7f7f"/>
  <path d="M104,32a8,8,0,1,0,8,8A8,8,0,0,0,104,32Zm-.129,13.377a1.3,1.3,0,1,1,1.3-1.3A1.3,1.3,0,0,1,103.871,45.377Zm3.466-6.96a5.421,5.421,0,0,1-1.28,1.283c-.475.377-.77.469-.9.706a3.488,3.488,0,0,0-.192.594H102v.27c0-.425.353-.773.448-1.033a2.8,2.8,0,0,1,.576-.715c.191-.221.711-.62,1.394-1.186.4-.325.632-.624.632-.915a.866.866,0,0,0-.239-.668,1.038,1.038,0,0,0-.742-.239,1.187,1.187,0,0,0-.879.355,1.84,1.84,0,0,0-.421,1.068l-2.411-.3a3.461,3.461,0,0,1,1.014-2.16,3.854,3.854,0,0,1,2.748-.856,4.1,4.1,0,0,1,2.332.6,2.448,2.448,0,0,1,1.189,2.138A2.053,2.053,0,0,1,107.337,38.416Z" fill="#7f7f7f"/>
  <g>
    <polygon points="134.726 43.158 132.078 39.711 133.252 38.488 134.726 40.361 139.347 36.59 139.922 37.164 134.726 43.158" fill="#7f7f7f"/>
    <g id="a8c961fd-80ac-49ff-aa86-9fbe744ef351" data-name="remove">
      <path d="M136,32a8,8,0,1,0,8,8A8.005,8.005,0,0,0,136,32Zm0,13.875A5.875,5.875,0,1,1,141.875,40,5.878,5.878,0,0,1,136,45.875Z" fill="#7f7f7f"/>
    </g>
  </g>
  <g id="577943d0-432b-4d1d-9ffd-dbe7551d8d75" data-name="ban">
    <path d="M152,32a8,8,0,1,0,8,8A8.009,8.009,0,0,0,152,32Zm0,2.123a5.831,5.831,0,0,1,3.135.914l-8.1,8.1A5.867,5.867,0,0,1,152,34.123Zm0,11.755a5.834,5.834,0,0,1-3.134-.913l8.1-8.1A5.867,5.867,0,0,1,152,45.877Z" fill="#7f7f7f"/>
  </g>
  <path d="M168,32c-4.419,0-8,1.12-8,2.5V36l6,6v5c0,.553.9,1,2,1s2-.447,2-1V42l6-6V34.5C176,33.12,172.418,32,168,32Zm-6.525,2.169a6.782,6.782,0,0,1,1.52-.585,21.76,21.76,0,0,1,10.011,0,6.856,6.856,0,0,1,1.52.585,1.729,1.729,0,0,1,.441.331,1.753,1.753,0,0,1-.441.331,6.807,6.807,0,0,1-1.52.585,21.762,21.762,0,0,1-10.011,0,6.841,6.841,0,0,1-1.52-.585,1.757,1.757,0,0,1-.442-.331A1.753,1.753,0,0,1,161.475,34.169Z" fill="#7f7f7f"/>
  <path d="M216,40.5l4-4h-3v-4h-2v4h-3Zm3.637-1.637-1.121,1.121,4.063,1.516L216,43.954,209.421,41.5l4.063-1.516-1.121-1.121L208,40.5v4l8,3,8-3v-4Z" fill="#7f7f7f"/>
  <path d="M260.9,48a4.076,4.076,0,0,1,.321-4.688,7.472,7.472,0,0,0,1.129-2.61,3.068,3.068,0,0,1,.423,2.352c1.141-1.27,2.506-2.755,1.606-4.079-.033-.049.027-.112.073-.074a7.694,7.694,0,0,1,2.014,9.1c8.631-4.883,2.147-12.19,1.018-13.014a2.678,2.678,0,0,1-.313,2.893C265.887,33,262.705,32,262.705,32c.376,2.517-1.364,5.268-3.042,7.324a5.438,5.438,0,0,0-.649-2.656c-.118,1.823-1.512,3.309-1.889,5.135C256.614,44.276,257.508,46.087,260.9,48Z" fill="#7f7f7f"/>
  <g id="6f60ce22-04e6-468d-b1f6-4f985c2592eb" data-name="cogwheel">
    <path d="M303.926,41.03a7.182,7.182,0,0,0,0-2.06l-2.113-.529a5.973,5.973,0,0,0-.6-1.45l1.12-1.866a8.021,8.021,0,0,0-1.458-1.458l-1.866,1.12a5.988,5.988,0,0,0-1.451-.6l-.528-2.113a7.228,7.228,0,0,0-2.061,0l-.528,2.113a5.972,5.972,0,0,0-1.449.6l-1.866-1.12a7.989,7.989,0,0,0-1.459,1.458l1.12,1.865a5.945,5.945,0,0,0-.6,1.451l-2.113.529a7.174,7.174,0,0,0,0,2.06l2.113.529a5.946,5.946,0,0,0,.6,1.45l-1.12,1.866a8.02,8.02,0,0,0,1.458,1.458l1.866-1.12a5.989,5.989,0,0,0,1.451.6l.528,2.113a7.237,7.237,0,0,0,2.061,0l.528-2.113a5.965,5.965,0,0,0,1.451-.6l1.866,1.12a8.05,8.05,0,0,0,1.458-1.458l-1.121-1.866a5.976,5.976,0,0,0,.6-1.45ZM296,42.8a2.8,2.8,0,1,1,2.8-2.8A2.8,2.8,0,0,1,296,42.8Z" fill="#7f7f7f"/>
  </g>
  <path d="M0,50V62H16V50ZM3,61H1V59H3Zm0-4H1V55H3Zm0-4H1V51H3Zm9,8H4V51h8Zm3,0H13V59h2Zm0-4H13V55h2Zm0-4H13V51h2ZM6,53v6l4-3Z" fill="#7f7f7f"/>
  <g>
    <path d="M61,50l0,0V62l0,0H51l0,0V50l0,0H49V62a2.006,2.006,0,0,0,2,2H61a2.006,2.006,0,0,0,2-2V50Zm-3,0V49a1,1,0,0,0-1-1H55a1,1,0,0,0-1,1v1H52v2h8V50Z" fill="#7f7f7f"/>
    <g>
      <path d="M52.013,52.973H53.68a.167.167,0,0,1,.167.167v1.666a.167.167,0,0,1-.167.167H52.013a.166.166,0,0,1-.166-.166V53.139A.166.166,0,0,1,52.013,52.973Z" fill="#7f7f7f"/>
      <path d="M55.1,54.5c-.136,0-.25-.226-.25-.5h0c0-.275.114-.5.25-.5h4.5c.136,0,.249.226.249.5h0c0,.272-.113.5-.249.5Z" fill="#7f7f7f" fill-rule="evenodd"/>
      <path d="M55.1,57.5c-.136,0-.25-.226-.25-.5h0c0-.275.114-.5.25-.5h4.5c.136,0,.249.226.249.5h0c0,.272-.113.5-.249.5Z" fill="#7f7f7f" fill-rule="evenodd"/>
      <path d="M55.1,60.5c-.136,0-.25-.226-.25-.5h0c0-.275.114-.5.25-.5h4.5c.136,0,.249.226.249.5h0c0,.272-.113.5-.249.5Z" fill="#7f7f7f" fill-rule="evenodd"/>
      <path d="M52.013,55.973H53.68a.167.167,0,0,1,.167.167v1.666a.167.167,0,0,1-.167.167H52.013a.166.166,0,0,1-.166-.166V56.139A.166.166,0,0,1,52.013,55.973Z" fill="#7f7f7f"/>
      <path d="M52.013,58.973H53.68a.167.167,0,0,1,.167.167v1.666a.167.167,0,0,1-.167.167H52.013a.166.166,0,0,1-.166-.166V59.139a.166.166,0,0,1,.166-.166Z" fill="#7f7f7f"/>
    </g>
  </g>
  <path d="M93.158,57.211a2.171,2.171,0,0,0-1.406-.332,11.647,11.647,0,0,0-1.69.125,4.31,4.31,0,0,1-.784-.542,5.732,5.732,0,0,1-1.415-2.2c.021-.08.038-.151.054-.223a14.225,14.225,0,0,0,.249-2.573.753.753,0,0,0-.044-.184l-.03-.076a.608.608,0,0,0-.556-.425l-.166-.006h0a.628.628,0,0,0-.641.4,7.425,7.425,0,0,0,.391,3.355l-.1.239c-.275.671-.619,1.345-.923,1.94l-.04.077c-.319.626-.609,1.157-.872,1.606l-.271.144c-.02.011-.485.257-.594.323a3.313,3.313,0,0,0-1.641,1.678.414.414,0,0,0,.157.457l.262.132a.8.8,0,0,0,.357.086c.659,0,1.425-.821,2.479-2.662a24.673,24.673,0,0,1,3.819-.907,6.571,6.571,0,0,0,2.784.883,1.323,1.323,0,0,0,.327-.035.557.557,0,0,0,.325-.223,1.18,1.18,0,0,0,.13-.795A.54.54,0,0,0,93.158,57.211Zm-9.85,3.509a4.592,4.592,0,0,1,1.3-1.556c.044-.036.153-.139.253-.232A4.683,4.683,0,0,1,83.309,60.72Zm4.169-9.6c.212,0,.332.534.343,1.034a2.122,2.122,0,0,1-.253,1.113,5.441,5.441,0,0,1-.179-1.389S87.38,51.12,87.478,51.12Zm-1.244,6.841c.147-.265.3-.543.458-.838a16.127,16.127,0,0,0,.8-1.756,5.787,5.787,0,0,0,1.328,1.648c.066.055.134.111.207.166A16.885,16.885,0,0,0,86.234,57.961Zm6.719-.061a.947.947,0,0,1-.37.064A4.352,4.352,0,0,1,91.05,57.5c.258-.02.493-.029.7-.029a2.711,2.711,0,0,1,.88.1C93.014,57.664,93.019,57.859,92.953,57.9Zm1.165-6.784-2.232-2.232A3.476,3.476,0,0,0,89.752,48h-7.5A1.254,1.254,0,0,0,81,49.25v13.5A1.254,1.254,0,0,0,82.252,64h11.5A1.254,1.254,0,0,0,95,62.75v-9.5A3.477,3.477,0,0,0,94.118,51.116Zm-.707.707a1.256,1.256,0,0,1,.144.177H91V49.446a1.334,1.334,0,0,1,.177.145ZM94,62.75a.253.253,0,0,1-.25.25h-11.5a.253.253,0,0,1-.25-.25V49.25a.253.253,0,0,1,.25-.25h7.5a1.406,1.406,0,0,1,.25.026V53h3.974a1.4,1.4,0,0,1,.026.25Z" fill="#7f7f7f"/>
  <path d="M167,56.5h2v-4h3l-4-4-4,4h3Zm3-2.25v1.543l4.579,1.707L168,59.954,161.421,57.5,166,55.793V54.25l-6,2.25v4l8,3,8-3v-4Z" fill="#7f7f7f"/>
  <g id="3344b6d7-0d0a-4fd2-80c1-a658f93390f6" data-name="play">
    <path d="M183.891,58.913l-2.86-4.764c-.06-.076-.028-.149.068-.149h5.8c.1,0,.129.072.068.149l-2.859,4.768A.133.133,0,0,1,183.891,58.913Z" fill="#7f7f7f"/>
  </g>
  <path d="M203,50h-6l-5,5.5v5c0,.553.447,1.5,1,1.5h14c.553,0,1-.947,1-1.5v-5Zm-1,9h-4l-1-2h6Zm-8.7-3,4.166-5h5.064l4.166,5Zm3.151-3h7.095l-.834-1h-5.428Zm-1.666,2h10.428l-.833-1h-8.762Z" fill="#7f7f7f"/>
  <g>
    <path d="M219.029,49.53l.076.03a1.384,1.384,0,0,1,.391.228l1.357,1.357a1.38,1.38,0,0,1,.228.391c.011.026.021.052.03.076h-2.081Zm-3.3,10.028h5.828a1.087,1.087,0,0,0,1.084-1.084v-6.5a3.015,3.015,0,0,0-.766-1.85l-1.357-1.357a3.015,3.015,0,0,0-1.85-.767h-5.057a1.087,1.087,0,0,0-1.084,1.084v5.334l1.445.039V49.445h4.334v2.89h2.89v5.779h-4.874Z" fill="#7f7f7f"/>
    <path d="M219.263,62.477l-2.421-2.059a1.081,1.081,0,0,0-.734-.319,3.827,3.827,0,1,0-.429.429,1.08,1.08,0,0,0,.319.734l2.059,2.421a.859.859,0,1,0,1.206-1.206Zm-6.071-2.31a2.555,2.555,0,1,1,2.555-2.555A2.555,2.555,0,0,1,213.192,60.167Z" fill="#7f7f7f"/>
  </g>
  <g>
    <path d="M238.208,50.213,236.793,48.8a3.139,3.139,0,0,0-1.928-.8h-5.271a1.133,1.133,0,0,0-1.129,1.129v9.788a1.133,1.133,0,0,0,1.129,1.129h8.282a1.132,1.132,0,0,0,1.129-1.129V52.141A3.142,3.142,0,0,0,238.208,50.213Zm-2.966-.619c.025.009.052.019.079.031a1.445,1.445,0,0,1,.407.237l1.414,1.414a1.4,1.4,0,0,1,.237.407c.012.027.022.054.031.079h-2.169ZM237.5,58.54h-7.528V49.505h4.518v3.012H237.5Z" fill="#7f7f7f"/>
    <path d="M234.534,60.045v2.45h-7.528V53.46h1.46V51.955h-1.838a1.133,1.133,0,0,0-1.129,1.129v9.788A1.133,1.133,0,0,0,226.629,64h8.282a1.132,1.132,0,0,0,1.129-1.129V60.045Z" fill="#7f7f7f"/>
  </g>
  <g>
    <path d="M13,66V78H1V66H13m1-1H0V79H14V65Z" fill="#7f7f7f"/>
    <polygon points="6.226 77.455 1.5 71.303 3.596 69.119 6.227 72.463 14.475 65.731 15.5 66.757 6.226 77.455" fill="#7f7f7f"/>
  </g>
  <g>
    <path d="M47,76.637V79H44.637V76.637H47m.637-1H44a.364.364,0,0,0-.363.363v3.636A.364.364,0,0,0,44,80h3.637A.365.365,0,0,0,48,79.636V76a.365.365,0,0,0-.363-.363Z" fill="#7f7f7f"/>
    <path d="M38.182,75.637h3.636a.363.363,0,0,1,.363.363v3.637a.363.363,0,0,1-.363.363H38.182a.364.364,0,0,1-.364-.364V76A.364.364,0,0,1,38.182,75.637Z" fill="#7f7f7f"/>
    <rect x="32" y="75.637" width="4.363" height="4.363" rx="0.363" ry="0.363" fill="#7f7f7f"/>
    <path d="M47,70.818v2.363H44.637V70.818H47m.637-1H44a.364.364,0,0,0-.363.363v3.637a.364.364,0,0,0,.363.363h3.637A.364.364,0,0,0,48,73.818V70.182a.364.364,0,0,0-.363-.363Z" fill="#7f7f7f"/>
    <rect x="37.818" y="69.818" width="4.363" height="4.363" rx="0.363" ry="0.363" fill="#7f7f7f"/>
    <rect x="32" y="69.818" width="4.363" height="4.363" rx="0.363" ry="0.363" fill="#7f7f7f"/>
    <path d="M47,65v2.364H44.637V65H47m.637-1H44a.364.364,0,0,0-.363.364V68a.364.364,0,0,0,.363.364h3.637A.365.365,0,0,0,48,68V64.364A.365.365,0,0,0,47.637,64Z" fill="#7f7f7f"/>
    <path d="M38.182,64h3.636a.364.364,0,0,1,.364.364V68a.363.363,0,0,1-.363.363H38.182A.364.364,0,0,1,37.818,68V64.363A.363.363,0,0,1,38.182,64Z" fill="#7f7f7f"/>
    <path d="M32.363,64H36a.364.364,0,0,1,.364.364V68a.363.363,0,0,1-.363.363H32.364A.364.364,0,0,1,32,68V64.363A.363.363,0,0,1,32.363,64Z" fill="#7f7f7f"/>
  </g>
  <g id="63c16b42-4fc9-4bef-8654-c8c11977892c" data-name="unshare">
    <path d="M80,76.862c-1.362-3.24-5.971-3.183-8.091-3.166l0,3.516c0,.194-.127.258-.283.143l-7.505-5.56a.245.245,0,0,1,0-.417l7.517-5.545c.155-.115.283-.051.283.143l0,3.173C73.489,69.271,79.9,70.182,80,76.862Z" fill="#7f7f7f"/>
  </g>
  <g id="c5ffe941-fbd0-4aa8-94af-279027d8f1e9" data-name="unshare">
    <path d="M88.051,69.147l0-3.173c0-.194.128-.258.283-.143l7.517,5.545a.245.245,0,0,1,0,.417l-7.505,5.56c-.156.115-.283.051-.283-.143l0-3.516c-2.12-.017-6.729-.074-8.091,3.166C80.062,70.182,86.475,69.271,88.051,69.147Z" fill="#7f7f7f"/>
  </g>
  <path d="M110,67H98V77h12Zm2-2h0V79H96V65Zm-3,11H99V74l3-5,4.109,5L109,72v4Zm-3-6.5a1.5,1.5,0,1,0,1.5-1.5A1.5,1.5,0,0,0,106,69.5Z" fill="#7f7f7f"/>
  <g id="37b2df61-cdd0-4328-87b2-329c312dc3ec" data-name="bold">
    <path d="M121.827,71.75s2.23-.63,2.23-2.58a3.279,3.279,0,0,0-3.27-3.17h-5.48v.715c1,.235,1,.39,1,1.145v8.275a1.064,1.064,0,0,1-1,.975V78h5.46c1.55,0,3.926-.905,3.926-3.06C124.693,72.44,121.827,71.75,121.827,71.75Zm-3.02-4.25h1.48c1,0,1.3.88,1.3,1.75s-.3,1.75-1.3,1.75h-1.48Zm1.5,9h-1.5v-4h1.48c1.265,0,1.835,1,1.835,2.172A1.678,1.678,0,0,1,120.3,76.5Z" fill="#7f7f7f"/>
  </g>
  <g id="8afd2cf8-3cfd-4ec8-b581-669c15a75b9d" data-name="italic">
    <path d="M139.262,66.572,139.25,66h-4.012v.572c1,.269.9.372.751,1.234l-1.6,8.411c-.114.646-.655,1.122-1.655,1.211V78h4.5v-.572a1.056,1.056,0,0,1-.875-1.211l1.418-8.411C137.933,66.943,138.072,66.841,139.262,66.572Z" fill="#7f7f7f"/>
  </g>
  <path d="M160,65h16v2H160Zm0,3h10v2H160Zm0,6h10v2H160Zm0-3h16v2H160Zm0,6h16v2H160Z" fill="#7f7f7f"/>
  <path d="M176,65h16v2H176Zm3,3h10v2H179Zm0,6h10v2H179Zm-3-3h16v2H176Zm0,6h16v2H176Z" fill="#7f7f7f"/>
  <path d="M208,67H192V65h16Zm0,3H198V68h10Zm0,6H198V74h10Zm0-3H192V71h16Zm0,6H192V77h16Z" fill="#7f7f7f"/>
  <g>
    <path d="M212.25,68c-.136,0-.25-.226-.25-.5v-1c0-.275.114-.5.25-.5h10.5c.136,0,.249.226.249.5v1c0,.272-.113.5-.249.5Z" fill="#7f7f7f" fill-rule="evenodd"/>
    <path d="M212.25,73c-.136,0-.25-.226-.25-.5v-1c0-.275.114-.5.25-.5h10.5c.136,0,.249.226.249.5v1c0,.272-.113.5-.249.5Z" fill="#7f7f7f" fill-rule="evenodd"/>
    <path d="M212.25,78c-.136,0-.25-.226-.25-.5v-1c0-.275.114-.5.25-.5h10.5c.136,0,.249.226.249.5v1c0,.272-.113.5-.249.5Z" fill="#7f7f7f" fill-rule="evenodd"/>
    <g>
      <path d="M210.487,65.5v2.74h.5a.381.381,0,0,1,.258.069.25.25,0,0,1,0,.361.386.386,0,0,1-.258.069h-1.511a.383.383,0,0,1-.258-.069.234.234,0,0,1-.077-.183.229.229,0,0,1,.077-.179.377.377,0,0,1,.258-.069h.5V66.152l-.446.117a.689.689,0,0,1-.162.029.215.215,0,0,1-.164-.076.26.26,0,0,1-.07-.186.228.228,0,0,1,.052-.157.46.46,0,0,1,.215-.1Z" fill="#7f7f7f"/>
      <path d="M209.765,73.24h1.1a.28.28,0,0,1,.171-.074.23.23,0,0,1,.182.076.39.39,0,0,1,.067.259v.239H209v-.529a19.841,19.841,0,0,0,1.634-1.435.491.491,0,0,0,.141-.311.42.42,0,0,0-.159-.323.623.623,0,0,0-.427-.141.651.651,0,0,0-.446.156.584.584,0,0,0-.149.247.286.286,0,0,1-.094.146.262.262,0,0,1-.324-.029.233.233,0,0,1-.074-.172.746.746,0,0,1,.135-.365.968.968,0,0,1,.4-.352,1.236,1.236,0,0,1,.566-.133,1.083,1.083,0,0,1,.776.287.921.921,0,0,1,.3.7.865.865,0,0,1-.087.384,2.035,2.035,0,0,1-.416.489Q210.513,72.6,209.765,73.24Z" fill="#7f7f7f"/>
      <path d="M210.946,77.068a1.041,1.041,0,0,1,.332.35.916.916,0,0,1,.109.445.891.891,0,0,1-.566.834,1.89,1.89,0,0,1-.723.116,1.694,1.694,0,0,1-.874-.181.29.29,0,0,1-.163-.244.252.252,0,0,1,.071-.182.233.233,0,0,1,.175-.074.267.267,0,0,1,.147.049.65.65,0,0,0,.2.1,1.889,1.889,0,0,0,.4.033,1.318,1.318,0,0,0,.633-.113.354.354,0,0,0,.2-.32.467.467,0,0,0-.114-.3.724.724,0,0,0-.3-.221,1.35,1.35,0,0,0-.371-.061.276.276,0,0,1-.191-.077.236.236,0,0,1-.067-.172.246.246,0,0,1,.073-.181.251.251,0,0,1,.186-.073c.166,0,.255,0,.266,0a.505.505,0,0,0,.2-.064.425.425,0,0,0,.158-.148.354.354,0,0,0,.059-.194.347.347,0,0,0-.141-.275.65.65,0,0,0-.421-.116.7.7,0,0,0-.552.211.37.37,0,0,1-.091.078.243.243,0,0,1-.114.026.24.24,0,0,1-.176-.073.246.246,0,0,1-.073-.181.429.429,0,0,1,.225-.327,1.381,1.381,0,0,1,.818-.232,1.044,1.044,0,0,1,.744.264.839.839,0,0,1,.281.635.8.8,0,0,1-.084.36A.984.984,0,0,1,210.946,77.068Z" fill="#7f7f7f"/>
    </g>
  </g>
  <path d="M240,65h16v2H240Zm6,3h10v2H246Zm0,3h10v2H246Zm0,3h10v2H246Zm-6,3h16v2H240Zm4-8v6l-4-3Z" fill="#7f7f7f"/>
  <path d="M255.938,65h16v2h-16Zm6,3h10v2h-10Zm0,3h10v2h-10Zm0,3h10v2h-10Zm-6,3h16v2h-16Zm0-2V69l4,3Z" fill="#7f7f7f"/>
  <g>
    <g id="7a2c5e65-84be-4e07-9273-dae9450f828f" data-name="&lt;Group&gt;">
      <path d="M284.376,79.289V80h-4.5v-.715a1,1,0,0,0,.862-1.425c-.159-.435-.889-2.4-.889-2.4H275.63s-.62,1.57-.991,2.534.5,1.286,1.3,1.286V80H272v-.715a3.57,3.57,0,0,0,.9-.556,3.781,3.781,0,0,0,.558-.809l4.311-10.859h1l4.153,10.766a3.526,3.526,0,0,0,.648,1A1.264,1.264,0,0,0,284.376,79.289Zm-4.791-4.911-1.251-3.416-.493-1.511-1.928,4.928Z" fill="#7f7f7f"/>
    </g>
    <g>
      <rect x="285.14" y="68.813" width="2.859" height="2.86" rx="0.238" ry="0.238" fill="#00ff20"/>
      <rect x="281.327" y="68.813" width="2.86" height="2.86" rx="0.238" ry="0.238" fill="#0037ff"/>
      <rect x="285.14" y="65" width="2.859" height="2.86" rx="0.238" ry="0.238" fill="#ff0021"/>
      <rect x="281.327" y="65" width="2.86" height="2.86" rx="0.238" ry="0.238"/>
    </g>
  </g>
  <g>
    <rect x="288" y="69.065" width="16" height="9" fill="url(#11a801b3-dfa9-4ae0-8154-55658212fe26)"/>
    <g id="1fa99c51-42b3-4132-a42a-581817c62a27" data-name="&lt;Group&gt;">
      <path d="M304,79.289V80h-4.5v-.715a1,1,0,0,0,.862-1.426c-.159-.435-.889-2.4-.889-2.4h-4.219s-.62,1.57-.991,2.534.5,1.287,1.3,1.287V80h-3.938v-.715a3.571,3.571,0,0,0,.9-.556,3.786,3.786,0,0,0,.558-.809L297.4,67.065h1l4.154,10.766a3.526,3.526,0,0,0,.648,1A1.264,1.264,0,0,0,304,79.289Zm-4.791-4.911-1.251-3.416-.493-1.511-1.928,4.928Z" fill="#7f7f7f"/>
    </g>
  </g>
  <g>
    <path d="M54.2,80.316c-3.425,0-6.2.868-6.2,1.938v1.163l4.651,4.651v3.876c0,.428.694.775,1.55.775s1.55-.347,1.55-.775V88.068L60.4,83.417V82.254C60.4,81.184,57.626,80.316,54.2,80.316ZM49.143,82a5.258,5.258,0,0,1,1.178-.454,16.869,16.869,0,0,1,7.76,0A5.317,5.317,0,0,1,59.26,82a1.339,1.339,0,0,1,.342.257,1.358,1.358,0,0,1-.342.257,5.282,5.282,0,0,1-1.178.454,16.871,16.871,0,0,1-7.761,0,5.31,5.31,0,0,1-1.178-.454,1.365,1.365,0,0,1-.343-.257A1.362,1.362,0,0,1,49.143,82Z" fill="#7f7f7f"/>
    <g id="a23992fd-32f2-42da-a57e-00a04553f919" data-name="remove_2">
      <path d="M61.9,92.67l2.038-2.038a.208.208,0,0,0,0-.292l-.86-.86a.2.2,0,0,0-.289,0l-2.042,2.041L58.707,89.48a.2.2,0,0,0-.289,0l-.861.86a.209.209,0,0,0,0,.292L59.6,92.67l-2.042,2.042a.2.2,0,0,0,0,.289l.861.861a.208.208,0,0,0,.292,0l2.039-2.038,2.038,2.038a.209.209,0,0,0,.292,0L63.94,95a.208.208,0,0,0,0-.292Z" fill="#7f7f7f"/>
    </g>
  </g>
  <g id="80ab0b9d-7d78-4a1c-bd6d-39b5b10f9177" data-name="book_open">
    <path d="M79.333,82.591v-.882a8.249,8.249,0,0,0-3.827-.885A6.538,6.538,0,0,0,72,81.657a6.538,6.538,0,0,0-3.507-.833,8.249,8.249,0,0,0-3.826.885v.882L64,82.945V93.416a19.816,19.816,0,0,1,4.666-1.052,11.678,11.678,0,0,1,3.334.59,11.678,11.678,0,0,1,3.334-.59,5.782,5.782,0,0,1,.666.044v2.883l1.021-1.344L78,95.292v-2.48a9.99,9.99,0,0,1,2,.6V82.945Zm-8,8.154a10.224,10.224,0,0,0-2.654-.452,7.064,7.064,0,0,0-2.68.466V82.48a5.516,5.516,0,0,1,2.68-.466,4.443,4.443,0,0,1,2.654.751ZM78,90.758a7.064,7.064,0,0,0-2.68-.466,10.224,10.224,0,0,0-2.654.452v-7.98a4.443,4.443,0,0,1,2.654-.751A5.516,5.516,0,0,1,78,82.48Z" fill="#7f7f7f"/>
  </g>
  <path d="M152,84a4,4,0,1,1-4,4,4,4,0,0,1,4-4m0-1a5,5,0,1,0,5,5,5,5,0,0,0-5-5Z" fill="#7f7f7f"/>
  <g>
    <g id="35e94737-15de-4b14-b29d-4d2ada98b3a8" data-name="chevron-right">
      <polygon points="247.087 88.087 254.175 81 255.996 82.821 250.738 88.087 256 93.349 254.175 95.175 247.087 88.087" fill="#7f7f7f"/>
    </g>
    <g id="98c7281f-9a01-414e-827a-320d75098edd" data-name="chevron-right">
      <polygon points="240 88.087 247.087 81 248.909 82.821 243.65 88.087 248.913 93.349 247.087 95.175 240 88.087" fill="#7f7f7f"/>
    </g>
  </g>
  <g id="92eaf357-af3c-4211-9e01-31c3cd83289c" data-name="chevron-right">
    <polygon points="257.605 88 264.692 80.913 266.514 82.734 261.255 88 266.518 93.262 264.692 95.088 257.605 88" fill="#7f7f7f"/>
  </g>
  <path d="M0,113.5v13H16v-13Zm10,1v3H6v-3Zm-9,4H5v3H1Zm10-1v-3h4v3Zm0,8v-3h4v3Z" fill="#7f7f7f"/>
  <g>
    <g id="ac8351c2-ce01-4947-8237-98f614c05890" data-name="chevron-right">
      <polygon points="296.913 88.087 289.825 81 288.004 82.821 293.262 88.087 288 93.349 289.825 95.175 296.913 88.087" fill="#7f7f7f"/>
    </g>
    <g id="46633a00-3687-4652-8188-5cc35a193c78" data-name="chevron-right">
      <polygon points="304 88.087 296.913 81 295.091 82.821 300.35 88.087 295.087 93.349 296.913 95.175 304 88.087" fill="#7f7f7f"/>
    </g>
  </g>
  <g id="f7fc30e5-2190-4a83-9ee6-788151b0cc53" data-name="chevron-right">
    <polygon points="285.913 88.087 278.825 81 277.004 82.821 282.262 88.087 277 93.349 278.825 95.175 285.913 88.087" fill="#7f7f7f"/>
  </g>
  <path d="M124.417,112H115.9l-2.9,2.565V128h9.568c1.1,0,1.432-.834,1.432-1.935v-9.333c0-1.1-.331-1.732-1.432-1.732h-7.177l1.333-1H122.9c1.333,0,2.1.065,2.1,1.4,0,.667-.083,11.018-.083,11.018L127,124.732v-10C127,113.4,126.6,112,124.417,112Z" fill="#7f7f7f"/>
  <g>
    <g id="c88e9e8f-4ca8-443e-8578-6550584d36d9" data-name="right_arrow">
      <path d="M137.036,124.028l-5.567-4.309a.2.2,0,0,1,0-.327l5.569-4.309c.116-.09.216-.043.216.1v2.767h6.474a.279.279,0,0,1,.274.273v2.658a.28.28,0,0,1-.274.274h-6.474v2.767C137.252,124.071,137.152,124.118,137.036,124.028Z" fill="#7f7f7f"/>
    </g>
    <path d="M141.59,116.52v-2.829a1.46,1.46,0,0,0-1.456-1.456H129.456A1.46,1.46,0,0,0,128,113.691V126.31a1.46,1.46,0,0,0,1.456,1.456h10.678a1.46,1.46,0,0,0,1.456-1.456v-3.936l-1.941-.03v3.48h-9.707V114.176h9.707v2.344Z" fill="#7f7f7f"/>
  </g>
  <g>
    <path d="M70.364,135.425A3.629,3.629,0,1,0,73.988,132,3.531,3.531,0,0,0,70.364,135.425Zm5.889,4.288h-4.53a3.53,3.53,0,0,0-3.623,3.428V144H79.877v-.859A3.53,3.53,0,0,0,76.253,139.713Z" fill="#7f7f7f"/>
    <g>
      <path d="M69.033,134.788a5.441,5.441,0,0,1,1.744-3.106,4.573,4.573,0,0,1,2.486-1.1,3.584,3.584,0,0,0-3.5-2.582,3.53,3.53,0,0,0-3.624,3.429A3.483,3.483,0,0,0,69.033,134.788Z" fill="#7f7f7f"/>
      <path d="M68.657,139a8.42,8.42,0,0,1,1.291-.841,3.824,3.824,0,0,1-.98-2.443H67.5a3.53,3.53,0,0,0-3.623,3.428V140h3.836A5.319,5.319,0,0,1,68.657,139Z" fill="#7f7f7f"/>
    </g>
  </g>
  <g>
    <path d="M91.35,128H80v12.968H92.971V129.621Zm-4.863,1.621h1.621v3.242H86.486Zm4.863,9.727H81.624v-9.727h.81v4.052h7.295v-4.052h.95l.671.671Z" fill="#7f7f7f"/>
    <path d="M83.034,140.968V144H96V132.652l-1.621-1.621H92.972v1.621h.739l.671.671v9.055H84.655v-1.411Z" fill="#7f7f7f"/>
  </g>
  <g id="8fb756ac-cd6d-4759-95c4-b91aa50be0df" data-name="display">
    <path d="M111.431,129H96.573a.579.579,0,0,0-.571.583V139.5a.579.579,0,0,0,.571.583h6.286v.583a1.109,1.109,0,0,1-1.116,1.167h-2.11a.206.206,0,0,0-.2.207V143h9.143v-.96a.206.206,0,0,0-.2-.207h-2.083a1.127,1.127,0,0,1-1.143-1.167v-.583h6.286A.579.579,0,0,0,112,139.5v-9.917A.579.579,0,0,0,111.431,129Zm-.571,10.5h-.571v-.583h.571Zm-1-2.167H98.145v-6.167h11.714Z" fill="#7f7f7f"/>
  </g>
  <g>
    <g id="93a779ba-4c30-4d20-a0d0-812824aaf324" data-name="text_underline">
      <polygon points="146 77.25 146 78 158 78 158 77.25 158 77 146 77 146 77.25" fill="#7f7f7f"/>
    </g>
    <path d="M147.968,68.111c0-1.335-.089-1.422-.756-1.551l-.37-.072a.336.336,0,0,1,.03-.488c.711.029,1.453.043,2.164.043.726,0,1.453-.014,2.164-.043a.379.379,0,0,1,0,.488l-.356.057c-.667.115-.756.23-.756,1.565v3.317c0,1.68.193,3.532,2.446,3.532,1.9,0,2.475-1.608,2.475-3.575V69.647a9.674,9.674,0,0,0-.222-2.628c-.133-.3-.459-.388-.86-.459l-.4-.072a.421.421,0,0,1,0-.488c.8.029,1.378.043,1.986.043.548,0,1.1-.014,1.66-.043a.421.421,0,0,1,0,.488l-.267.057c-.385.086-.667.172-.8.474a9.694,9.694,0,0,0-.222,2.628v1.608a4.869,4.869,0,0,1-.949,3.461A4.078,4.078,0,0,1,152,75.75a4.562,4.562,0,0,1-2.935-.8c-.771-.617-1.1-1.68-1.1-3.245Z" fill="#7f7f7f"/>
  </g>
  <g>
    <path d="M225.166,66h1.667a.167.167,0,0,1,.167.167v1.666a.167.167,0,0,1-.167.167h-1.667a.166.166,0,0,1-.166-.166V66.166A.166.166,0,0,1,225.166,66Z" fill="#7f7f7f"/>
    <path d="M228.25,68c-.136,0-.25-.226-.25-.5v-1c0-.275.114-.5.25-.5h10.5c.136,0,.249.226.249.5v1c0,.272-.113.5-.249.5Z" fill="#7f7f7f" fill-rule="evenodd"/>
    <path d="M228.25,73c-.136,0-.25-.226-.25-.5v-1c0-.275.114-.5.25-.5h10.5c.136,0,.249.226.249.5v1c0,.272-.113.5-.249.5Z" fill="#7f7f7f" fill-rule="evenodd"/>
    <path d="M228.25,78c-.136,0-.25-.226-.25-.5v-1c0-.275.114-.5.25-.5h10.5c.136,0,.249.226.249.5v1c0,.272-.113.5-.249.5Z" fill="#7f7f7f" fill-rule="evenodd"/>
    <path d="M225.166,71h1.667a.167.167,0,0,1,.167.167v1.666a.167.167,0,0,1-.167.167h-1.667a.166.166,0,0,1-.166-.166V71.166A.166.166,0,0,1,225.166,71Z" fill="#7f7f7f"/>
    <path d="M225.166,76h1.667a.167.167,0,0,1,.167.167v1.666a.167.167,0,0,1-.167.167h-1.667a.166.166,0,0,1-.166-.166V76.166A.166.166,0,0,1,225.166,76Z" fill="#7f7f7f"/>
  </g>
  <path d="M220.5,98.692a5.6,5.6,0,0,0,3-1.143v9.308a5.6,5.6,0,0,1-3,1.143,5.487,5.487,0,0,1-3-.847,5.5,5.5,0,0,0-3-.847,5.581,5.581,0,0,0-3,1.1V98.1a5.573,5.573,0,0,1,3-1.1,5.487,5.487,0,0,1,3,.846A5.491,5.491,0,0,0,220.5,98.692ZM209.5,96a1,1,0,0,1,1,1v15h-2V97A1,1,0,0,1,209.5,96Z" fill="#7f7f7f"/>
  <g>
    <g>
      <rect x="257" y="97" width="13" height="13" fill="#fff"/>
      <path d="M269,98v12H257V98h12m1-1H256v14h14V97Z" fill="#7f7f7f"/>
    </g>
    <g opacity="0.2">
      <rect x="258" y="99" width="10" height="10" fill="url(#204db920-968a-4505-b909-c073ecdea796)"/>
    </g>
  </g>
  <g>
    <g>
      <rect x="929" y="97" width="13" height="13" fill="#fff"/>
      <path d="M941,98v12H929V98h12m1-1H928v14h14V97Z" fill="#7f7f7f"/>
    </g>
    <g opacity="0.2">
      <rect x="930" y="99" width="10" height="10" fill="url(#89606640-ae5c-402b-8e87-16219bd26b70)"/>
    </g>
    <polygon points="934.726 109.336 930 103.184 932.096 101 934.727 104.344 942.975 97.611 944 98.638 934.726 109.336" fill="#7f7f7f"/>
  </g>
  <g>
    <path d="M193.166,98h1.667a.167.167,0,0,1,.167.167v1.666a.167.167,0,0,1-.167.167h-1.667a.166.166,0,0,1-.166-.166V98.166A.166.166,0,0,1,193.166,98Z" fill="#7f7f7f"/>
    <path d="M196.25,100c-.136,0-.25-.226-.25-.5v-1c0-.275.114-.5.25-.5h10.5c.136,0,.249.226.249.5v1c0,.272-.113.5-.249.5Z" fill="#7f7f7f" fill-rule="evenodd"/>
    <path d="M196.25,105c-.136,0-.25-.226-.25-.5v-1c0-.275.114-.5.25-.5h10.5c.136,0,.249.226.249.5v1c0,.272-.113.5-.249.5Z" fill="#7f7f7f" fill-rule="evenodd"/>
    <path d="M196.25,110c-.136,0-.25-.226-.25-.5v-1c0-.275.114-.5.25-.5h10.5c.136,0,.249.226.249.5v1c0,.272-.113.5-.249.5Z" fill="#7f7f7f" fill-rule="evenodd"/>
    <path d="M193.166,103h1.667a.167.167,0,0,1,.167.167v1.666a.167.167,0,0,1-.167.167h-1.667a.166.166,0,0,1-.166-.166v-1.668A.166.166,0,0,1,193.166,103Z" fill="#7f7f7f"/>
    <path d="M193.166,108h1.667a.167.167,0,0,1,.167.167v1.666a.167.167,0,0,1-.167.167h-1.667a.166.166,0,0,1-.166-.166v-1.668A.166.166,0,0,1,193.166,108Z" fill="#7f7f7f"/>
  </g>
  <path d="M221.939,2.94l-1.878-1.879A4.174,4.174,0,0,0,217.5,0h-7A1.5,1.5,0,0,0,209,1.5v13a1.5,1.5,0,0,0,1.5,1.5h11a1.5,1.5,0,0,0,1.5-1.5v-9A4.174,4.174,0,0,0,221.939,2.94ZM218,2.118c.035.012.069.026.105.041a1.919,1.919,0,0,1,.541.315l1.878,1.878a1.911,1.911,0,0,1,.315.541c.015.036.029.072.041.106H218ZM221,14H211V2h6V6h4Zm-9-6h8V9h-8Zm0,2h8v1h-8Zm0,2h8v1h-8Z" fill="#7f7f7f"/>
  <g>
    <path d="M118.04,129.51h1.51v3.019h-1.51Zm6.04,4.575V129.51L122.569,128H112v12.079h5.476v-1.51H113.51V129.51h.755v3.774h6.8V129.51h.883l.626.625v3.95" fill="#7f7f7f"/>
    <path d="M127.721,142.659l-2.132-1.813a.952.952,0,0,0-.647-.281,3.371,3.371,0,1,0-.377.378.951.951,0,0,0,.281.647l1.813,2.132a.756.756,0,1,0,1.062-1.062Zm-5.346-2.034a2.25,2.25,0,1,1,2.25-2.25A2.25,2.25,0,0,1,122.375,140.625Z" fill="#7f7f7f"/>
  </g>
  <g>
    <g id="0b473cd4-43d5-4d06-a60f-ff9c8d931fbf" data-name="display">
      <path d="M135.6,137.171h-6.644v-6.712h11.507v3.6l.959,1.586v-5.668a.481.481,0,0,0-.48-.479H128.48a.481.481,0,0,0-.48.479v8.151a.481.481,0,0,0,.48.479h5.274v.479a.924.924,0,0,1-.937.959h-1.77a.171.171,0,0,0-.17.17v.789H133.3l.137-.225Z" fill="#7f7f7f"/>
    </g>
    <path d="M143.877,140.937l-3.988-6.593a.963.963,0,0,0-1.682-.033l-3.988,6.642a1.053,1.053,0,0,0,.841,1.547h7.977A1.066,1.066,0,0,0,143.877,140.937Zm-4.829,1.057a.972.972,0,1,1,.972-.972A.972.972,0,0,1,139.047,141.994Zm.668-2.494h-1.337l-.3-3.127a1.067,1.067,0,0,1,.972-1.078,1.119,1.119,0,0,1,.972,1.13Z" fill="#7f7f7f"/>
  </g>
  <g>
    <path d="M154.945,140.638h-1.78S152,140.549,152,139.572v-.934h3v-1H145v-7h12v3h1V130.3c0-.268-.173-.658-.441-.658H144.866c-.269,0-.866.39-.866.658v8.3c0,.268.6.042.866.042H150v.934c0,.976-.718,1.066-.718,1.066h-1.8c-.095,0-.48-.011-.48.084v.916h8v-.916C155,140.627,155.04,140.638,154.945,140.638Z" fill="#7f7f7f"/>
    <g id="43555587-3fe7-4daa-83ba-93d8f3a62d54" data-name="iphone">
      <g id="9d4a93bd-0395-4f99-8452-6b5404d35c1b" data-name="body">
        <path d="M159.215,134.83h-2.825a.787.787,0,0,0-.785.785v5.963a.787.787,0,0,0,.785.785h2.825a.787.787,0,0,0,.785-.785v-5.963A.787.787,0,0,0,159.215,134.83Zm-1.412,7.3a.556.556,0,1,1,.556-.556A.556.556,0,0,1,157.8,142.133Zm-1.569-1.341v-4.708h3.139v4.708Z" fill="#7f7f7f"/>
      </g>
    </g>
  </g>
  <g id="241fc783-e1c5-43fa-b820-df6f3dc32472" data-name="screenshot">
    <path d="M168,140.458a4.444,4.444,0,1,1,4.444-4.444A4.449,4.449,0,0,1,168,140.458Zm0-8.3a3.852,3.852,0,1,0,3.852,3.852A3.856,3.856,0,0,0,168,132.162Z" fill="#7f7f7f"/>
    <path d="M161.778,136.794H160.3c-.163,0-.3-.337-.3-.5s.133-.5.3-.5H167.4v1h-5.625Zm5.625-4.631v2.631h1v-6.5c0-.163-.337-.3-.5-.3s-.5.133-.5.3v3.867Zm8.3,3.631h-7.3v1h7.3c.163,0,.3-.337.3-.5S175.867,135.794,175.7,135.794Zm-7.3,4.042v-3.042h-1V143.7c0,.163.337.3.5.3s.5-.133.5-.3v-3.867Z" fill="#7f7f7f"/>
  </g>
  <g>
    <path d="M176,139.506V129.481h12.988v4.353a8.362,8.362,0,0,0-1.085-.275c-.195-.051-.227-.089-.225-.26.008-.758,0-1.515,0-2.273V130.8H177.335v7.371h5.692l.346,1.332Z" fill="#7f7f7f"/>
    <path d="M187.323,135.842a1.944,1.944,0,1,0,1.933,1.98,1.949,1.949,0,0,0-1.933-1.98M192,141.494l-1.025,1.025-2.031-2.033a11.127,11.127,0,0,1-1.092.341,3.1,3.1,0,1,1,2.54-3.409,3.037,3.037,0,0,1-.371,1.867.19.19,0,0,0,.038.278c.651.64,1.3,1.287,1.941,1.932" fill="#7f7f7f"/>
    <path d="M180.216,135.507c.191-1.161.373-2.263.55-3.366.027-.166.086-.293.27-.295s.246.136.281.292q.313,1.4.627,2.8c0,.018.012.035.033.1.075-.185.138-.335.2-.486a5.848,5.848,0,0,1,.241-.591.262.262,0,0,1,.491,0,9.411,9.411,0,0,1,.4.883c.061.155.14.231.311.2a1.543,1.543,0,0,1,.24,0v.534a5.919,5.919,0,0,1-.663-.009.362.362,0,0,1-.225-.177c-.108-.2-.188-.408-.3-.654l-.455,1.156-.057.144c-.052.13-.153.219-.284.174a.4.4,0,0,1-.228-.219c-.1-.34-.167-.689-.247-1.035q-.139-.6-.279-1.207a1.137,1.137,0,0,0-.057-.137c-.178,1.081-.351,2.124-.52,3.167-.05.306-.116.428-.281.422-.238-.008-.267-.2-.312-.379-.182-.732-.369-1.462-.594-2.2-.058.2-.118.405-.175.609-.091.324-.123.35-.454.35h-.5v-.534h.472c.137-.523.273-1.033.4-1.543.04-.157.1-.291.282-.289s.234.126.274.277c.161.612.329,1.221.5,1.831.013.048.031.095.063.193" fill="#7f7f7f"/>
    <path d="M185.391,141.624h-6.022a.765.765,0,0,1,.076-.107c.37-.372.739-.746,1.115-1.111a.345.345,0,0,1,.217-.09q1.488-.009,2.975,0a.256.256,0,0,1,.181.074,4.479,4.479,0,0,0,1.439,1.193c.008.005.01.021.019.042" fill="#7f7f7f"/>
  </g>
  <g>
    <path d="M203.389,133.941A4.53,4.53,0,1,0,208,138.471,4.571,4.571,0,0,0,203.389,133.941Zm-2.417,4.4,1.671-.925-1.671-.876v-1.2l3.013,1.743v.642l-3.013,1.812Zm5.524.245-1.671.876,1.671.925v1.2l-3.515-1.812v-.642l3.515-1.743Z" fill="#7f7f7f"/>
    <path d="M196.868,139.06h-1.754c-.092,0-.447.1-.447.191v1.121h5.31c-.089-.875-.14-.849-.14-1.2,0-.1-.062-.283-.055-.379a1.249,1.249,0,0,1-.226-.636v-.4h.506c.184-.437.476-1.312.85-1.312h-8.023v-6.561h11.558v5.144c.445.042.889.123.889.238v-5.971c0-.257-.153-.286-.414-.286H192.57c-.261,0-.57.029-.57.286v7.933a.62.62,0,0,0,.57.529h5.209v.4A.87.87,0,0,1,196.868,139.06Z" fill="#7f7f7f"/>
  </g>
  <g>
    <path d="M213.027,134.587a8.947,8.947,0,0,0-1.849,1.258,10.639,10.639,0,0,0,2.806,1.851,3.555,3.555,0,0,1-1.013-2.489A3.592,3.592,0,0,1,213.027,134.587Z" fill="#7f7f7f"/>
    <path d="M218.947,134.086a8.256,8.256,0,0,0-1.4-.348,1.781,1.781,0,1,1-2.015,0,7.671,7.671,0,0,0-1.411.37,2.659,2.659,0,1,0,4.828-.024Z" fill="#7f7f7f"/>
    <path d="M215.826,136.334l.326-.326a.887.887,0,0,1-.488-.683l-.362.361A1.346,1.346,0,0,0,215.826,136.334Z" fill="#7f7f7f"/>
    <path d="M220.108,135.206a3.558,3.558,0,0,1-1.058,2.536,10.808,10.808,0,0,0,3.044-1.9,8.967,8.967,0,0,0-2.051-1.311A3.6,3.6,0,0,1,220.108,135.206Z" fill="#7f7f7f"/>
    <path d="M224,130.222A2.222,2.222,0,0,0,221.778,128H210.222A2.222,2.222,0,0,0,208,130.222v11.556A2.222,2.222,0,0,0,210.222,144h11.556A2.222,2.222,0,0,0,224,141.778Zm-7.461,8.942c-3.468,0-6.608-3.319-6.608-3.319s2.233-3.958,6.608-3.958,6.608,3.958,6.608,3.958S220.007,139.164,216.539,139.164Z" fill="#7f7f7f"/>
  </g>
  <g id="bbb7dc97-46e3-4351-8821-e379b54a6667" data-name="yRiIEz.tif">
    <path d="M229.311,135.417c-.236,0-.473-.014-.708,0a5.078,5.078,0,0,0-4.518,4.065,3.8,3.8,0,0,0,1.342,3.819,2.813,2.813,0,0,0,3.43.222,3.8,3.8,0,0,0,1.5-1.474c.475-.824.935-1.657,1.417-2.476a2.577,2.577,0,0,1,3.436-1.154,3.383,3.383,0,0,1,1.568,1.529,8.273,8.273,0,0,0,1,1.645c.309.354.676.542,1.1.266a1.066,1.066,0,0,0,.4-1.184,2.515,2.515,0,0,0-.552-1.139,4.652,4.652,0,0,0-1.44-1.168,4.081,4.081,0,0,1-2.1-3.312,11.334,11.334,0,0,0-1.65-4.526,4.861,4.861,0,0,0-3.093-2.48,2.158,2.158,0,0,0-2.6,2.475,1.843,1.843,0,0,0,1.082,1.583,17.556,17.556,0,0,0,2.266.9,3.225,3.225,0,0,1,1.71,1.41c.227.4.5.84.192,1.3-.3.443-.743.272-1.137.143A7.426,7.426,0,0,0,229.311,135.417Zm7.769,1.122a4.03,4.03,0,0,1,2.285-1.46,1.334,1.334,0,0,0,.294-.162.692.692,0,0,0,.167-1.06,1.435,1.435,0,0,0-2.182-.25A2.959,2.959,0,0,0,237.08,136.539Z" fill="#7f7f7f"/>
  </g>
  <g>
    <path d="M271,129.5a1.5,1.5,0,0,0-1.5-1.5h-11a1.5,1.5,0,0,0-1.5,1.5v13a1.5,1.5,0,0,0,1.5,1.5h11a1.5,1.5,0,0,0,1.5-1.5Zm-2,.5v6H259v-6Zm-10,12v-5h10v5Z" fill="#7f7f7f"/>
    <polygon points="267 133 261 133 261 131 262 131 262 132 266 132 266 131 267 131 267 133" fill="#7f7f7f"/>
    <polygon points="267 140 261 140 261 138 262 138 262 139 266 139 266 138 267 138 267 140" fill="#7f7f7f"/>
  </g>
  <g id="618868d7-fa77-443e-aeb9-ef7b5afe2aba" data-name="menu">
    <g id="82dcbdfe-bc56-40d1-b7fe-9ab6c07353de" data-name="below">
      <path id="d54d04bd-ae75-44fa-a2a8-1ea410361836" data-name="Shape-Copy" d="M288,128.5a.5.5,0,0,1,.5-.5H303.5a.492.492,0,0,1,.5.5v4a.5.5,0,0,1-.5.5H288.5a.492.492,0,0,1-.5-.5Z" fill="#7f7f7f"/>
      <path id="1388aad3-e33c-43a5-87dd-52d2a5c48a87" data-name="Path-Copy-9" d="M296,143a6,6,0,1,1,6-6,6,6,0,0,1-6,6Z" fill="#fff"/>
      <path id="5a15840e-f404-4768-99e5-0c9023c1a186" data-name="Plus-Copy-2" d="M296,142.88h0a5.88,5.88,0,1,0-5.88-5.88,5.88,5.88,0,0,0,5.88,5.88Zm0,1.12h0a7,7,0,1,1,7-7,7,7,0,0,1-7,7Zm.746-7.76v-2.5a.75.75,0,0,0-1.5,0l.027,2.5h-2.527a.75.75,0,0,0,0,1.5l2.527-.027-.027,2.527a.75.75,0,1,0,1.5,0v-2.527l2.5.027a.75.75,0,0,0,0-1.5Z" fill="#7f7f7f"/>
    </g>
  </g>
  <g id="9e703fec-c2db-48d7-93b9-b5912899a908" data-name="menu">
    <g id="2bf37779-5604-4b79-af1e-4c55f8254222" data-name="above">
      <path id="35962754-ceed-4255-84d8-346992b5f6fa" data-name="Shape-Copy" d="M288,143.5a.5.5,0,0,1-.5.5H272.5a.492.492,0,0,1-.5-.5v-4a.5.5,0,0,1,.5-.5H287.5a.492.492,0,0,1,.5.5Z" fill="#7f7f7f"/>
      <path id="a3a28bb1-beb1-4bc5-a401-4cbd435aa26b" data-name="Path-Copy-9" d="M280,129a6,6,0,1,1-6,6,6,6,0,0,1,6-6Z" fill="#fff"/>
      <path id="b8bb5dff-c545-4a04-8279-f9da37ab1f9e" data-name="Plus-Copy-2" d="M280,129.12h0a5.88,5.88,0,1,0,5.88,5.88,5.88,5.88,0,0,0-5.88-5.88Zm0-1.12h0a7,7,0,1,1-7,7,7,7,0,0,1,7-7Zm-.746,7.76v2.5a.75.75,0,0,0,1.5,0l-.027-2.5h2.527a.75.75,0,0,0,0-1.5l-2.527.027.027-2.527a.75.75,0,1,0-1.5,0v2.527l-2.5-.027a.75.75,0,0,0,0,1.5Z" fill="#7f7f7f"/>
    </g>
  </g>
  <g>
    <path d="M12.936,145.455H9.882a2.153,2.153,0,0,0-4.073,0H2.754A1.459,1.459,0,0,0,1.3,146.909v11.636A1.459,1.459,0,0,0,2.754,160H7.549a3.715,3.715,0,0,1-.5-.669,2.142,2.142,0,0,1-.237-.785H2.754V146.909H4.209v2.182h7.273v-2.182h1.455v5.023A2.384,2.384,0,0,1,14,151.919a1.626,1.626,0,0,1,.388.154v-5.164A1.459,1.459,0,0,0,12.936,145.455Zm-5.091,1.455a.727.727,0,1,1,0-1.455.727.727,0,0,1,0,1.455Z" fill="#455571"/>
    <path d="M14.506,153.1h0a1.791,1.791,0,0,0-2.535,0l-1.381,1.383a2.165,2.165,0,0,1,1.192.17l.87-.871a.817.817,0,1,1,1.154,1.156l-1.514,1.516a.81.81,0,0,1-1.154,0l-.057-.057a.373.373,0,0,0-.435.057l-.416.417a1,1,0,0,0,.227.265,1.786,1.786,0,0,0,2.516-.019l1.514-1.516A1.768,1.768,0,0,0,14.506,153.1Z" fill="#455571"/>
    <path d="M8.111,159.481a1.786,1.786,0,0,0,2.516,0l1.381-1.383a2.165,2.165,0,0,1-1.192-.17l-.87.871a.817.817,0,0,1-1.154-1.156l1.514-1.516a.81.81,0,0,1,1.154,0l.057.057a.373.373,0,0,0,.435-.057l.416-.417a1,1,0,0,0-.227-.265,1.786,1.786,0,0,0-2.516-.019l-1.514,1.516a1.8,1.8,0,0,0,0,2.538Z" fill="#455571"/>
  </g>
  <path d="M29.027,145.491H25.947a2.07,2.07,0,0,0-3.975,0H18.891a1.528,1.528,0,0,0-1.491,1.491v11.528A1.528,1.528,0,0,0,18.891,160h5.963l4.174-4.373h0l1.491-1.491v-7.255A1.51,1.51,0,0,0,29.027,145.491Zm-5.068,0a.7.7,0,1,1-.7.7A.679.679,0,0,1,23.959,145.491Zm5.068,8.447H24.853v4.472H18.891V146.882h1.491v2.186h7.255v-2.186h1.491v7.056Z" fill="#455571"/>
  <g id="aeb44b9e-b474-4e66-945e-38d6d77c6050" data-name="UI-Guideline">
    <g id="6cccc39e-25a7-4466-b02f-802cf2f0296e" data-name="Style-Guide---5">
      <g id="bca4892c-36b0-4278-bbf5-291e3f94d75a" data-name="Group-8">
        <g id="422d2279-93bc-4d8c-afe5-05a89f9eab50" data-name="success-msg">
          <g id="7abf7b22-2ccb-4c5e-9bdf-b7ce3b7a6ab2" data-name="Group-7">
            <g id="08b53b60-2589-44bf-96e5-40ef5ff26914" data-name="copied-copy">
              <path id="82a05b22-76e4-4117-9aea-b2fa6d314276" data-name="Shape" d="M42.037,145.455a2.154,2.154,0,0,0-4.075,0H34.906a1.459,1.459,0,0,0-1.455,1.455v11.636A1.459,1.459,0,0,0,34.906,160H45.094a1.459,1.459,0,0,0,1.455-1.455V146.909a1.459,1.459,0,0,0-1.455-1.455Zm3.056,13.091H34.906V146.909h1.455v2.182h7.276v-2.182h1.455ZM40,145.455a.727.727,0,1,1-.728.727A.687.687,0,0,1,40,145.455Z" fill="#0fa96c"/>
              <polygon id="4c1064b8-f134-49da-a525-0febf2be777b" data-name="Shape" points="39.011 156.986 36.31 153.461 37.51 152.211 39.011 154.136 43.714 150.286 44.314 150.861 39.011 156.986" fill="#0fa96c"/>
            </g>
          </g>
        </g>
      </g>
    </g>
  </g>
  <path id="9d718154-1e7c-46fe-ad05-5cb9835cf3ca" data-name="Combined-Shape" d="M52.031,147.747a5.589,5.589,0,0,1,2.132-1.4l.251-.09L53.572,144l-.251.09a8.479,8.479,0,0,0-3.028,1.989l-.179.2,1.72,1.666Zm1.075,8.959a6.221,6.221,0,0,1-1.81-1.81l-.143-.233-2.025,1.29.143.233a8.523,8.523,0,0,0,2.562,2.562l.233.143,1.29-2.025Zm-1.218,1.415a7.7,7.7,0,0,1-2.025-2.007l1.129-.717a6.2,6.2,0,0,0,1.613,1.595Zm7.686-1.613a5.771,5.771,0,0,1-2.347.985l-.269.054.43,2.365.269-.054a8.078,8.078,0,0,0,3.333-1.4l.215-.161-1.4-1.953Zm-9.084-5.733a5.572,5.572,0,0,1,.985-2.347l.161-.215-1.953-1.4-.161.215a8.179,8.179,0,0,0-1.4,3.333l-.054.251,2.365.412Zm11.252,2.8-.09.251a5.884,5.884,0,0,1-1.4,2.132l-.2.179,1.666,1.72.2-.179a8.179,8.179,0,0,0,1.989-3.028l.09-.251Zm-10.858.555a5.8,5.8,0,0,1-.484-2.347v-.43l-2.4-.054v.5a8.092,8.092,0,0,0,.7,3.315l.108.251,2.2-.968Zm5.751,3.458h-.43a5.857,5.857,0,0,1-2.347-.484l-.251-.108-.968,2.2.251.108a8.009,8.009,0,0,0,3.3.7h.52l-.054-2.132Zm.46-8.037-3.2,3.176a1.127,1.127,0,0,0-.311,1l-.187.187a.627.627,0,0,0,0,.893.6.6,0,0,0,.436.187.565.565,0,0,0,.436-.187l.187-.187a.706.706,0,0,0,.208.021,1.134,1.134,0,0,0,.789-.332l3.2-3.2.457.457a.356.356,0,0,0,.457,0,.3.3,0,0,0,0-.436l-.228-.228,1.6-1.6a1.439,1.439,0,0,0-2.034-2.034l-1.6,1.6-.228-.228a.308.308,0,0,0-.436.436Zm-2.055,4.318a.452.452,0,0,1-.519.1.317.317,0,0,0-.332.062l-.311.311.311-.311a.287.287,0,0,0,.062-.332.514.514,0,0,1,.1-.519l3.2-3.2.685.685Z" fill="#7f7f7f"/>
  <path id="559dbf6f-7009-4698-8979-8c3f46009635" data-name="General-Copy" d="M72,158.722h0a6.72,6.72,0,1,0-6.72-6.72,6.72,6.72,0,0,0,6.72,6.72ZM72,160a8,8,0,1,1,8-8A8,8,0,0,1,72,160Zm0-10.492a2.488,2.488,0,1,1-1.759.729A2.472,2.472,0,0,1,71.992,149.51Z" fill="#7f7f7f"/>
  <path id="0c19d0a0-0457-4be5-9e92-66513f4cd3be" data-name="Shape-Copy-5" d="M89.5,144h-7a1.5,1.5,0,0,0-1.5,1.5v13a1.5,1.5,0,0,0,1.5,1.5h11a1.5,1.5,0,0,0,1.5-1.5v-9C95,148.7,90.3,144,89.5,144Zm3.26,4.86c.077.077.043.14-.069.14H90.3a.294.294,0,0,1-.3-.3v-2.392c0-.115.072-.137.14-.069ZM83.51,158a.511.511,0,0,1-.51-.516V146.516a.513.513,0,0,1,.512-.516H89v3.477a.526.526,0,0,0,.523.523H93v7.475a.517.517,0,0,1-.51.525Zm1.285-8.079a4.653,4.653,0,0,1,1.93,2.163,4.6,4.6,0,0,1,.358,1.356h-.432a.521.521,0,0,0-.412.84l1.84,2.374a.521.521,0,0,0,.823,0l1.84-2.374a.521.521,0,0,0-.412-.84H89.81A4.631,4.631,0,0,0,85.2,149.3q-.131,0-.261.007a.329.329,0,0,0-.147.614Z" fill="#7f7f7f"/>
  <g>
    <path d="M104,1a6.957,6.957,0,0,0-7,7,7,7,0,0,0,14,0A6.957,6.957,0,0,0,104,1Zm0,12a4.951,4.951,0,0,1-5-5,5,5,0,0,1,10,0A4.951,4.951,0,0,1,104,13Z" fill="#7f7f7f"/>
    <polygon points="106.8 6.3 105.6 5.2 103.9 6.9 102.2 5.2 101.1 6.3 102.8 8 101.1 9.7 102.2 10.9 103.9 9.2 105.6 10.9 106.8 9.7 105.1 8 106.8 6.3" fill="#7f7f7f"/>
  </g>
  <path id="b0c3f3d1-2afc-40d7-aea8-6566feb4589d" data-name="Shape" d="M101.671,152.049v-2.013c0-.1.1-.2.2-.1l4.76,3.421a.188.188,0,0,1,0,.3l-4.658,3.421c-.1.1-.2,0-.2-.1v-2.214c-1.316,0-4.962.2-5.772,2.214C96,152.954,100.759,152.149,101.671,152.049Zm-3-.439a2.754,2.754,0,0,1,1.175-.411v-5.187H97.823V152.3S97.927,152.021,98.673,151.61Zm-.141,4.515a1.673,1.673,0,0,0-.709.453v1.409A2.025,2.025,0,0,0,99.848,160h10.127A2.025,2.025,0,0,0,112,157.986V145.91h-2.025v12.076H99.848v-2.147A4.478,4.478,0,0,0,98.531,156.124Zm8.405-10.113V145A.954.954,0,0,0,105.924,144H103.9A.954.954,0,0,0,102.886,145v1.006h-2.025v2.013h8.1v-2.013Z" fill="#7f7f7f"/>
  <path id="2b85644d-d7b2-4206-aea8-638ec4480147" data-name="Shape" d="M126.022,145.978h0a3.331,3.331,0,0,0-4.717,0l-3.011,3.011a3.211,3.211,0,0,0,0,4.616l.1.1.3.3,1.1-1.1c-.1-.1-.3-.2-.4-.3h0a1.879,1.879,0,0,1,0-2.609l3.011-3.011a1.757,1.757,0,0,1,2.509,0l.1.1a1.757,1.757,0,0,1,0,2.509L123.613,151a5.683,5.683,0,0,1,.3,1.806l2.108-2.108a3.331,3.331,0,0,0,0-4.717Zm-4.416,4.315-.3-.3-1.1,1.1a1.385,1.385,0,0,0,.4.3l.1.1a1.757,1.757,0,0,1,0,2.509l-3.011,3.011a1.757,1.757,0,0,1-2.509,0l-.2-.1a1.757,1.757,0,0,1,0-2.509L116.387,153a3.936,3.936,0,0,1-.4-1.806l-2.007,2.108a3.331,3.331,0,0,0,0,4.717h0a3.331,3.331,0,0,0,4.717,0l3.011-3.011a3.247,3.247,0,0,0-.1-4.717Z" fill="#7f7f7f"/>
  <path id="10ceeb6c-05c0-4d25-8bff-4bf672284e5e" data-name="Shape" d="M137.8,149.989h1.66c.5,0,.688-.345.416-.765l-3.179-4.912a.546.546,0,0,0-.989,0l-3.178,4.912c-.272.42-.085.765.416.765h1.659c-.024,2.86-.584,4.99-1.615,6.07a2.159,2.159,0,0,1-1.493.749V160a5.3,5.3,0,0,0,3.8-1.735,7.06,7.06,0,0,0,.908-1.224,7.056,7.056,0,0,0,.908,1.224,5.3,5.3,0,0,0,3.8,1.735v-3.189a2.156,2.156,0,0,1-1.493-.749C138.388,154.98,137.828,152.849,137.8,149.989Z" fill="#7f7f7f"/>
  <path id="c92d34fc-dd85-466c-9730-46dd8063750f" data-name="Shape-Copy-9" d="M166.724,149.16h3.624v-2.589h-3.624v2.589Zm4.66-.518c0,.785-.266,1.036-1.035,1.036h-6.731c-.769,0-1.035-.283-1.035-1.036v-1.553c0-.785.266-1.036,1.035-1.036h6.731c.785,0,1.035.251,1.035,1.036v1.553Zm2.091,3.429v-5.238l-2.247-2.333H161.117a1.146,1.146,0,0,0-1.123,1.167v11.667a1.146,1.146,0,0,0,1.123,1.167c.145,0,.269,0,.375-.006l6.9.006v-.133h0v.133h1.187a3.833,3.833,0,0,1-1.041-1.582H168.4v.115h0v-.115h-5.326a1,1,0,0,1-1-1.007v-3.634c0-.8.283-1.037,1.037-1.037h7.259c.637,0,.93.183,1.012.681a3.852,3.852,0,0,1,2.1.149Zm-1.3,4.408-1.016,1.015a.141.141,0,0,1-.226,0l-.677-.677a.141.141,0,0,1,0-.226l1.016-1.015-.978-.978a.141.141,0,0,1,0-.226l.677-.677a.141.141,0,0,1,.226,0l1.015,1.016,1.016-1.015a.141.141,0,0,1,.226,0l.677.677a.141.141,0,0,1,0,.226l-1.016,1.015,1.015,1.016a.141.141,0,0,1,0,.226l-.72.72a.1.1,0,0,1-.149,0Zm2.187-3.942a3.83,3.83,0,1,0,.931,5.335,3.814,3.814,0,0,0-.931-5.335Z" fill="#7f7f7f"/>
  <g>
    <path d="M187.227,144.5H177.115a1.146,1.146,0,0,0-1.123,1.167v11.667a1.146,1.146,0,0,0,1.123,1.167c.145,0,.269,0,.375-.006l6.9.006v0h1.187c-.009-.008-.015-.019-.024-.028a3.786,3.786,0,0,1-.977-1.473c-.011-.028-.03-.052-.04-.081h-.146v0h-5.326a1,1,0,0,1-1-1.007v-3.634c0-.8.283-1.037,1.037-1.037h7.259c.637,0,.93.183,1.012.681a3.893,3.893,0,0,1,.788-.081,3.831,3.831,0,0,1,.734.075c.065.013.125.035.188.051a3.845,3.845,0,0,1,.388.1v-5.238Zm-.879,5.177h-6.731c-.769,0-1.035-.283-1.035-1.036v-1.553c0-.785.266-1.036,1.035-1.036h6.731c.785,0,1.035.251,1.035,1.036v1.553h0C187.383,149.43,187.116,149.681,186.347,149.681Z" fill="#7f7f7f"/>
    <rect x="182.723" y="146.574" width="3.624" height="2.589" fill="#7f7f7f"/>
    <rect x="182.723" y="146.574" width="3.624" height="2.589" fill="#7f7f7f"/>
    <path d="M189.085,151.97c-.063-.016-.124-.038-.188-.051a3.793,3.793,0,0,0-.734-.075,3.846,3.846,0,0,0-.788.081h0a3.861,3.861,0,1,0,1.711.045Zm-2.968,4.263a.625.625,0,1,1,.625-.625A.625.625,0,0,1,186.117,156.233Zm2,0a.625.625,0,1,1,.625-.625A.625.625,0,0,1,188.117,156.233Zm2,0a.625.625,0,1,1,.625-.625A.625.625,0,0,1,190.117,156.233Z" fill="#7f7f7f"/>
    <path d="M189.085,151.97c-.063-.016-.124-.038-.188-.051C188.961,151.932,189.022,151.954,189.085,151.97Z" fill="#7f7f7f"/>
    <path d="M187.374,151.925a3.846,3.846,0,0,1,.788-.081,3.893,3.893,0,0,0-.788.081Z" fill="#7f7f7f"/>
    <path d="M185.558,158.475a3.828,3.828,0,0,1-.977-1.473A3.786,3.786,0,0,0,185.558,158.475Z" fill="#7f7f7f"/>
  </g>
  <path id="f579d733-5bed-42c2-b4eb-42b3e004b837" data-name="Shape-Copy-9" d="M54.731,5.16h3.624V2.571H54.731V5.16Zm4.66-.518c0,.785-.266,1.036-1.035,1.036H51.624c-.769,0-1.035-.283-1.035-1.036V3.089c0-.785.266-1.036,1.035-1.036h6.731c.785,0,1.035.251,1.035,1.036V4.642Zm2.091,3.429V2.833L59.235.5H49.123A1.146,1.146,0,0,0,48,1.667V13.333A1.146,1.146,0,0,0,49.123,14.5c.145,0,.269,0,.375-.006l6.9.006v-.133h0V14.5H57.59a3.833,3.833,0,0,1-1.041-1.582H56.4v.115h0v-.115H51.077a1,1,0,0,1-1-1.007V8.278c0-.8.283-1.037,1.037-1.037H58.37c.637,0,.93.183,1.012.681a3.852,3.852,0,0,1,2.1.149Zm-.673,4.181v1.436a.141.141,0,0,1-.16.16h-.957a.141.141,0,0,1-.16-.16V12.252H58.149a.141.141,0,0,1-.16-.16v-.957a.141.141,0,0,1,.16-.16h1.436V9.54a.141.141,0,0,1,.16-.16H60.7a.141.141,0,0,1,.16.16v1.436H62.3a.141.141,0,0,1,.16.16v1.018a.1.1,0,0,1-.108.1ZM60.17,7.841A3.83,3.83,0,1,0,64,11.67a3.814,3.814,0,0,0-3.83-3.83Z" fill="#7f7f7f"/>
  <path id="c8217478-b374-4e0b-b9e5-7af43a002dc9" data-name="Shape" d="M40.031,5.16h3.624V2.571H40.031V5.16Zm4.66-.518c0,.785-.267,1.036-1.035,1.036H36.924c-.769,0-1.035-.283-1.035-1.036V3.089c0-.785.266-1.036,1.035-1.036h6.731c.785,0,1.035.251,1.035,1.036V4.642Zm2.091-1.809L44.535.5H34.423A1.146,1.146,0,0,0,33.3,1.667V13.333A1.146,1.146,0,0,0,34.423,14.5c.145,0,.269,0,.375-.006l6.9.006V12.918H36.377a1,1,0,0,1-1-1.007V8.278c0-.8.283-1.037,1.037-1.037H43.67c.77,0,1.037.267,1.037,1.037v3.634a1,1,0,0,1-1,1.007h-2V14.5h3.955a1.146,1.146,0,0,0,1.123-1.167V2.833Z" fill="#7f7f7f"/>
  <path id="69cef433-944f-4127-96f8-6a676c46477c" data-name="tools" d="M193,157a2.006,2.006,0,0,0,2,2,2.035,2.035,0,0,0,1.5-.6l3.7-3.7,1,1a1.485,1.485,0,0,0,.4,1.4l1.4,1.4a1.485,1.485,0,0,0,2.1-2.1l-1.4-1.4a1.485,1.485,0,0,0-1.4-.4l-1-1,.6-.6a4.032,4.032,0,0,0,3.9-1.1,4.2,4.2,0,0,0,1.2-2.6h0a.645.645,0,0,0-.6-.6.52.52,0,0,0-.4.2l-.2.2-.6.6a2.035,2.035,0,0,1-1.5.6,1.678,1.678,0,0,1-1.4-.6,2.529,2.529,0,0,1-.6-1.5,2.035,2.035,0,0,1,.6-1.5l.6-.6.1-.1a.758.758,0,0,0,.2-.4.576.576,0,0,0-.6-.6h0a4.2,4.2,0,0,0-2.6,1.2,4.1,4.1,0,0,0-1,3.9l-.7.7-2.7-2.7v-.8l-1.7-.8-.9.8.9,1.8h.7l2.7,2.7-3.7,3.7a2.035,2.035,0,0,0-.6,1.5Zm1.5-.2a.7.7,0,1,1,.7.7.684.684,0,0,1-.7-.7Z" fill="#7f7f7f"/>
  <path id="eea29349-0fbf-4c0c-9f01-bba4a8367b3b" data-name="Combined-Shape" d="M136.487,13.381a2.618,2.618,0,0,1-.5-.9h-3.694V8.289h4.193a3.073,3.073,0,0,1,2.9-1.4,4.17,4.17,0,0,1,2.3.7v-2.8a.9.9,0,0,0-.9-.9H128.8a1.061,1.061,0,0,0-.8.9V9.087a.9.9,0,0,0,.9.9h2.6v3.395Zm3.894-8.786a.644.644,0,0,1,.6.6.6.6,0,0,1-1.2,0A.575.575,0,0,1,140.381,4.594ZM131,1h6.789V2.7H131Zm12.78,12.98-1.7-1.4a.645.645,0,0,0-.5-.2,2.711,2.711,0,0,0,.6-1.7,2.6,2.6,0,0,0-5.192-.1,2.643,2.643,0,0,0,2.6,2.6,2.349,2.349,0,0,0,1.7-.6,1.687,1.687,0,0,0,.2.5l1.4,1.7a.632.632,0,0,0,.9.1A.56.56,0,0,0,143.775,13.98Zm-4.193-1.6a1.8,1.8,0,1,1,1.8-1.8A1.79,1.79,0,0,1,139.582,12.382Z" fill="#7f7f7f"/>
  <g>
    <path d="M157.939,146.94l-1.879-1.879A4.174,4.174,0,0,0,153.5,144h-7a1.5,1.5,0,0,0-1.5,1.5v13a1.5,1.5,0,0,0,1.5,1.5h11a1.5,1.5,0,0,0,1.5-1.5v-9A4.174,4.174,0,0,0,157.939,146.94ZM154,146.118l.105.041a1.911,1.911,0,0,1,.541.315l1.879,1.879a1.92,1.92,0,0,1,.315.541c.015.035.028.071.041.106H154ZM157,158H147V146h6v4h4Z" fill="#7f7f7f"/>
    <rect x="149" y="151" width="7" height="1" fill="#7f7f7f"/>
    <rect x="149" y="148" width="3" height="1" fill="#7f7f7f"/>
    <path d="M155,154v2h-5v-2h5m1-1h-7v4h7v-4Z" fill="#7f7f7f"/>
  </g>
  <path d="M183,105.982h-4.5a.5.5,0,0,1-.5-.5V102.5a.5.5,0,0,1,.5-.5h11a.5.5,0,0,1,.5.5v2.987a.5.5,0,0,1-.5.5H183Z" fill="#7f7f7f"/>
  <path id="089369e9-8c52-455e-ad5b-6f46c69d6372" data-name="Combined-Shape-Copy-2" d="M223.714,147.3a.971.971,0,0,0-.964-.977H220.3V148h1.99v10.514H209.829V148H211.7v-1.684H209.25a.97.97,0,0,0-.964.977v11.729a.97.97,0,0,0,.964.977h13.5a.971.971,0,0,0,.964-.977ZM217.429,144h-2.857v6.671h-2.779L216,154.95l4.208-4.276h-2.779ZM211.4,156.592a.794.794,0,0,1,.8-.8h7.6a.8.8,0,0,1,0,1.6h-7.6A.8.8,0,0,1,211.4,156.592Z" fill="#7f7f7f"/>
  <path id="46584cfd-d4c3-4b14-9193-4316eed90428" data-name="swap" d="M239.714,147.3a.971.971,0,0,0-.964-.977H236.3V148h1.99v10.514H225.829V148H227.7v-1.684H225.25a.97.97,0,0,0-.964.977v11.729a.97.97,0,0,0,.964.977h13.5a.971.971,0,0,0,.964-.977Zm-5.486,5.328V148.31h-1.474v4.314h-1.726l2.462,2.455,2.462-2.455Zm-5.943-6.166H230v4.314h1.486v-4.314h1.723L230.747,144Zm-.883,10.134a.794.794,0,0,1,.8-.8h7.6a.8.8,0,0,1,0,1.6h-7.6A.8.8,0,0,1,227.4,156.592Z" fill="#7f7f7f"/>
  <g>
    <path d="M71.372,124.7H65.2V117H76.8v2.377a4.937,4.937,0,0,1,1.2.28v-5.591a.905.905,0,0,0-.9-.912H75.69v1.681a.892.892,0,0,1-1,.87h-.2a1.009,1.009,0,0,1-1-1.017v-1.534H68.621V114.7a1.009,1.009,0,0,1-1,1.017h-.2a1.009,1.009,0,0,1-1-1.017v-1.548H64.9a.905.905,0,0,0-.9.912v11.022a.905.905,0,0,0,.9.912h6.71A5.641,5.641,0,0,1,71.372,124.7Z" fill="#7f7f7f"/>
    <path d="M74.49,115.249h.2a.556.556,0,0,0,.551-.561v-2.127A.556.556,0,0,0,74.69,112h-.2a.556.556,0,0,0-.551.561v2.127A.556.556,0,0,0,74.49,115.249Z" fill="#7f7f7f"/>
    <path d="M67.421,115.263h.2a.556.556,0,0,0,.551-.561v-2.127a.556.556,0,0,0-.551-.561h-.2a.556.556,0,0,0-.551.561V114.7A.556.556,0,0,0,67.421,115.263Z" fill="#7f7f7f"/>
    <path d="M76.038,120a4,4,0,1,0,4,4A4,4,0,0,0,76.038,120Zm.725,7.152a1.1,1.1,0,0,1-.69.23,1.134,1.134,0,0,1-.7-.226.743.743,0,0,1-.3-.631.773.773,0,0,1,.285-.6,1.04,1.04,0,0,1,.7-.248,1.062,1.062,0,0,1,.708.248.766.766,0,0,1,.292.6A.743.743,0,0,1,76.763,127.152Zm.488-4.691-.353,1.527a1.355,1.355,0,0,1-.248.679.754.754,0,0,1-.624.236.729.729,0,0,1-.617-.229,1.571,1.571,0,0,1-.246-.7l-.263-1.457c-.049-.468-.074-.806-.074-1.009a.737.737,0,0,1,.358-.651,1.7,1.7,0,0,1,.941-.234,1.174,1.174,0,0,1,.945.3,1.352,1.352,0,0,1,.239.861A4.053,4.053,0,0,1,77.25,122.461Z" fill="#7f7f7f"/>
    <g>
      <rect x="66.7" y="121.5" width="1.8" height="1.8" rx="0.399" ry="0.399" fill="#7f7f7f"/>
      <rect x="73.7" y="118.4" width="1.8" height="1.8" rx="0.399" ry="0.399" fill="#7f7f7f"/>
      <rect x="70.2" y="121.5" width="1.8" height="1.8" rx="0.399" ry="0.399" fill="#7f7f7f"/>
      <rect x="70.2" y="118.4" width="1.8" height="1.8" rx="0.399" ry="0.399" fill="#7f7f7f"/>
      <rect x="66.7" y="118.4" width="1.8" height="1.8" rx="0.399" ry="0.399" fill="#7f7f7f"/>
    </g>
  </g>
  <path id="231c3a06-fdc9-4c4b-b80b-569ec570cbe5" data-name="Shape-Copy-41" d="M115.91,51.73h.229a.636.636,0,0,0,.63-.641V48.657a.636.636,0,0,0-.63-.641h-.229a.636.636,0,0,0-.63.641v2.431A.636.636,0,0,0,115.91,51.73Zm8.079-.016h.229a.636.636,0,0,0,.63-.641V48.641a.636.636,0,0,0-.63-.641h-.229a.636.636,0,0,0-.63.641v2.431A.636.636,0,0,0,123.989,51.714Zm1.371-2.395V51.24a1.02,1.02,0,0,1-1.142.995h-.229a1.154,1.154,0,0,1-1.142-1.162V49.319h-5.566v1.769a1.154,1.154,0,0,1-1.142,1.162h-.229a1.154,1.154,0,0,1-1.142-1.162V49.319h-1.744A1.035,1.035,0,0,0,112,50.361v12.6A1.035,1.035,0,0,0,113.024,64h13.952A1.034,1.034,0,0,0,128,62.958v-12.6a1.034,1.034,0,0,0-1.024-1.042Zm-11.988,13.2v-8.8h13.257v8.8Zm1.714-3.2a.457.457,0,0,1,.457-.457h1.144a.457.457,0,0,1,.457.457v1.144a.457.457,0,0,1-.457.457h-1.144a.457.457,0,0,1-.457-.457Zm8,0a.457.457,0,0,1,.457-.457h1.144a.457.457,0,0,1,.457.457v1.144a.457.457,0,0,1-.457.457h-1.144a.457.457,0,0,1-.457-.457Zm0-3.543a.457.457,0,0,1,.457-.457h1.144a.457.457,0,0,1,.457.457v1.144a.457.457,0,0,1-.457.457h-1.144a.457.457,0,0,1-.457-.457Zm-4,3.543a.457.457,0,0,1,.457-.457h1.144a.457.457,0,0,1,.457.457v1.144a.457.457,0,0,1-.457.457h-1.144a.457.457,0,0,1-.457-.457Zm0-3.543a.457.457,0,0,1,.457-.457h1.144a.457.457,0,0,1,.457.457v1.144a.457.457,0,0,1-.457.457h-1.144a.457.457,0,0,1-.457-.457Zm-4,0a.457.457,0,0,1,.457-.457h1.144a.457.457,0,0,1,.457.457v1.144a.457.457,0,0,1-.457.457h-1.144a.457.457,0,0,1-.457-.457Z" fill="#7f7f7f"/>
  <path id="17866815-9838-4666-88cb-bac741e3fbe1" data-name="Shape-Copy-41" d="M83.91,35.73h.229a.636.636,0,0,0,.63-.641V32.657a.636.636,0,0,0-.63-.641H83.91a.636.636,0,0,0-.63.641v2.431A.636.636,0,0,0,83.91,35.73Zm8.079-.016h.229a.636.636,0,0,0,.63-.641V32.641a.636.636,0,0,0-.63-.641h-.229a.636.636,0,0,0-.63.641v2.431A.636.636,0,0,0,91.989,35.714Zm1.371-2.395V35.24a1.02,1.02,0,0,1-1.142.995h-.229a1.154,1.154,0,0,1-1.142-1.162V33.319H85.281v1.769a1.154,1.154,0,0,1-1.142,1.162H83.91a1.154,1.154,0,0,1-1.142-1.162V33.319H81.024A1.035,1.035,0,0,0,80,34.361v12.6A1.035,1.035,0,0,0,81.024,48H94.976A1.034,1.034,0,0,0,96,46.958v-12.6a1.034,1.034,0,0,0-1.024-1.042Zm-11.988,13.2v-8.8H94.629v8.8Zm1.714-3.2a.457.457,0,0,1,.457-.457h1.144a.457.457,0,0,1,.457.457v1.144a.457.457,0,0,1-.457.457H83.542a.457.457,0,0,1-.457-.457Zm8,0a.457.457,0,0,1,.457-.457h1.144a.457.457,0,0,1,.457.457v1.144a.457.457,0,0,1-.457.457H91.542a.457.457,0,0,1-.457-.457Zm0-3.543a.457.457,0,0,1,.457-.457h1.144a.457.457,0,0,1,.457.457v1.144a.457.457,0,0,1-.457.457H91.542a.457.457,0,0,1-.457-.457Zm-4,3.543a.457.457,0,0,1,.457-.457h1.144a.457.457,0,0,1,.457.457v1.144a.457.457,0,0,1-.457.457H87.542a.457.457,0,0,1-.457-.457Zm0-3.543a.457.457,0,0,1,.457-.457h1.144a.457.457,0,0,1,.457.457v1.144a.457.457,0,0,1-.457.457H87.542a.457.457,0,0,1-.457-.457Zm-4,0a.457.457,0,0,1,.457-.457h1.144a.457.457,0,0,1,.457.457v1.144a.457.457,0,0,1-.457.457H83.542a.457.457,0,0,1-.457-.457Z" fill="#7f7f7f"/>
  <path id="915c988d-56ab-43b8-8d7e-4250616b6d8f" data-name="Combined-Shape" d="M245.1,144a3.152,3.152,0,0,0-3.145,3.152v.727h-.726a.727.727,0,0,0,0,1.455h.726v1.939h-.726a.727.727,0,0,0,0,1.455h.726v1.939h-.726a.727.727,0,0,0,0,1.455h.726v.727A3.152,3.152,0,0,0,245.1,160h9.677a.727.727,0,0,0,.726-.727V144.727a.727.727,0,0,0-.726-.727Zm8.952,14.545H245.1a1.7,1.7,0,0,1-1.694-1.7v-9.7a1.7,1.7,0,0,1,1.694-1.7h8.952Zm-5.323-6.061a2.182,2.182,0,1,0-2.177-2.182A2.18,2.18,0,0,0,248.726,152.485Zm0,0a3.39,3.39,0,0,0-3.387,3.394h6.774A3.39,3.39,0,0,0,248.726,152.485Z" fill="#7f7f7f"/>
  <g id="95ce158a-0654-4787-9231-a23aa4368212" data-name="Page-1">
    <path id="8780bdc4-cf77-4e33-a1f9-56868c19d763" data-name="Shape" d="M264,144a8,8,0,1,0,8,8A8.009,8.009,0,0,0,264,144Zm4.908,12.927v-.344c0-1.19-1.342-1.624-2.06-1.939-.26-.114-.75-.355-1.253-.607a.7.7,0,0,1-.342-.505l-.056-.564a2.439,2.439,0,0,0,.79-1.449h.087a.294.294,0,0,0,.285-.233l.136-.862a.282.282,0,0,0-.289-.3c0-.018.007-.037.009-.052.017-.1.028-.2.035-.3.009-.078.015-.16.019-.244a1.989,1.989,0,0,0-.164-.962,2.286,2.286,0,0,0-.523-.781c-.665-.645-1.436-.9-2.094-.378a1.5,1.5,0,0,0-1.365.592,1.854,1.854,0,0,0-.4.824,2.673,2.673,0,0,0-.092.622,2.579,2.579,0,0,0,.062.684.286.286,0,0,0-.262.293l.136.862a.294.294,0,0,0,.285.233h.078a2.913,2.913,0,0,0,.8,1.476l-.054.545a.706.706,0,0,1-.342.505c-.486.243-.965.477-1.252.6-.676.285-2.06.749-2.06,1.939v.269a7.03,7.03,0,0,1-1.823-4.734,6.8,6.8,0,1,1,13.6,0A7.038,7.038,0,0,1,268.908,156.927Z" fill="#7f7f7f"/>
  </g>
  <path d="M215.481,31.62a1.324,1.324,0,0,1-1.857,0l-4.644-4.728a1.223,1.223,0,0,1,0-1.773l7.514-7.43c.084-.084.169-.169.253-.169h1.267a2.467,2.467,0,0,1,.591-1.351c.085-.085.253-.085.422-.169a.473.473,0,0,1,.507.422.7.7,0,0,1-.253.591c-.253.253-.169.253-.169.591h1.6c.084,0,.169,0,.253.169l2.111,2.111c.084.084.169.169.169.253v3.884c0,.084-.084.169-.169.253Zm4.728-13H219.2a1.175,1.175,0,0,0,.422.338,1.143,1.143,0,0,1,.422,1.013s0,.169-.084.169a1.436,1.436,0,1,1-2.112,1.266,1.464,1.464,0,0,1,1.351-1.435c0-.338-.084-.507-.507-.76a1.176,1.176,0,0,1-.591-.675h-.845l-6.923,6.924a.791.791,0,0,0,0,1.1l3.715,3.8a.917.917,0,0,0,1.266,0l6.67-6.755V20.223l-1.773-1.6ZM212.188,25.2a.408.408,0,0,1,.591,0l2.871,2.786c.169.169.169.422,0,.507a.408.408,0,0,1-.591,0l-2.871-2.786c-.085-.169-.169-.338,0-.507Zm1.688-1.6a.408.408,0,0,1,.591,0l2.871,2.786c.169.169.169.422,0,.507a.408.408,0,0,1-.591,0l-2.871-2.7a.408.408,0,0,1,0-.591Z" fill="#7f7f7f"/>
  <path d="M314.667,9.689a.7.7,0,0,1,0,.978.653.653,0,0,1-.533.178.677.677,0,0,1-.444-.178l-2.222-2.133A1.261,1.261,0,0,1,311.29,8V3.823a.711.711,0,0,1,1.422,0V7.645l1.956,2.044ZM312,14.578A6.578,6.578,0,1,1,318.578,8,6.563,6.563,0,0,1,312,14.578ZM312,0a8,8,0,1,0,8,8,7.967,7.967,0,0,0-8-8Z" fill="#7f7f7f"/>
  <path d="M242.144,132.3,240,131.063l1.173,4.513,4.545-1.212-2.144-1.238a5.78,5.78,0,1,1-.564,4.369l-1.593.424a7.389,7.389,0,1,0,.727-5.619Zm5.756.445v3.809l3.261,1.935.549-.926-2.667-1.581v-3.238H247.9Z" fill="#7f7f7f"/>
  <path d="M238.25,23.5a.75.75,0,0,0-.75.75V30.5h-12v-12h6.25a.75.75,0,0,0,0-1.5H225a1,1,0,0,0-1,1V31a1,1,0,0,0,1,1h13a1,1,0,0,0,1-1V24.25a.75.75,0,0,0-.75-.75Zm1.575-5.175-2.151-2.151a.6.6,0,0,0-.848,0L228.5,24.5v3h3l8.325-8.325a.6.6,0,0,0,0-.85ZM231,26h-1V25l7.25-7.25,1,1Z" fill="#7f7f7f"/>
  <path d="M29.077,70.161c.884-.884,3.006-3.006.884-5.215a2.85,2.85,0,0,0-2.74-.884,5.726,5.726,0,0,0-2.652,1.591l-6.807,6.718a3.8,3.8,0,0,0-1.149,3.094,4.935,4.935,0,0,0,1.326,3.094,4.5,4.5,0,0,0,3.094,1.326h.088a4.21,4.21,0,0,0,3.006-1.238l6.718-6.718a.625.625,0,0,0-.884-.884l-6.718,6.718a3,3,0,0,1-2.3.884,3.534,3.534,0,0,1-2.3-.884,3.309,3.309,0,0,1-.088-4.6l6.807-6.718A3.95,3.95,0,0,1,27.4,65.21a1.745,1.745,0,0,1,1.768.619,1.426,1.426,0,0,1,.53,1.591,5.191,5.191,0,0,1-.884,1.414l-.088.088-6.718,6.807a.694.694,0,0,1-.972,0,.625.625,0,0,1,0-.972l6.011-6.011a.625.625,0,0,0-.884-.884l-6.1,6.011a1.922,1.922,0,0,0,0,2.652,1.841,1.841,0,0,0,2.652,0L29.08,70.16Z" fill="#7f7f7f"/>
  <g>
    <path d="M319.191,60.27h.848V55.354h-.848v-1.78a1.882,1.882,0,0,0-1.865-1.865H305.969a1.882,1.882,0,0,0-1.865,1.865v8.56A1.882,1.882,0,0,0,305.969,64h11.357a1.882,1.882,0,0,0,1.865-1.865ZM318,61.88a.85.85,0,0,1-.848.848H306.309a.85.85,0,0,1-.848-.848V53.828a.85.85,0,0,1,.848-.848h10.848a.85.85,0,0,1,.848.848v1.526h-3.136a2.5,2.5,0,0,0-2.373,2.458,2.442,2.442,0,0,0,2.373,2.458H318Zm.678-2.712h-3.9a1.356,1.356,0,1,1,0-2.712h3.9Z" fill="#7f7f7f"/>
    <path d="M314.53,48.405a.713.713,0,0,0-.932-.339L306.055,51.2a.656.656,0,0,0-.254.17h9.916l-1.187-2.966Z" fill="#7f7f7f"/>
    <path d="M316.055,57.812a.848.848,0,1,1-.848-.848A.848.848,0,0,1,316.055,57.812Z" fill="#7f7f7f"/>
  </g>
  <path d="M289.092,28.716V21.474H301.3v1.853a4.549,4.549,0,0,1,1.1.589V18.863a1.294,1.294,0,0,0-1.263-1.263h-.253v1.1a1.294,1.294,0,0,1-1.263,1.263h-.168a1.24,1.24,0,0,1-1.263-1.263V17.516h-1.6v1.1a1.294,1.294,0,0,1-1.263,1.263h-.168a1.191,1.191,0,0,1-1.263-1.263v-1.1h-1.6v1.1a1.294,1.294,0,0,1-1.263,1.263h-.168a1.191,1.191,0,0,1-1.263-1.263v-1.1h-.337A1.313,1.313,0,0,0,288,18.863V29.305a1.294,1.294,0,0,0,1.263,1.263h6.653a1.753,1.753,0,0,1-.505-1.011h-5.474a.8.8,0,0,1-.842-.842Zm1.094-11.958a.755.755,0,0,1,.758-.758.831.831,0,0,1,.842.758v1.768a.755.755,0,0,1-.758.758.778.778,0,0,1-.842-.758Zm4.211,0a.778.778,0,0,1,.842-.758.755.755,0,0,1,.758.758v1.768a.755.755,0,0,1-.758.758.778.778,0,0,1-.842-.758Zm4.295,0a.758.758,0,0,1,1.516,0v1.768a.758.758,0,0,1-1.516,0Zm1.263,7.158a4.1,4.1,0,0,0-4.042,4.042A3.99,3.99,0,0,0,299.955,32,4.043,4.043,0,0,0,304,27.958,3.99,3.99,0,0,0,299.955,23.916Zm.084,7.073a3.032,3.032,0,1,1,3.032-3.032A3.019,3.019,0,0,1,300.039,30.989Zm.084-5.389a.4.4,0,0,0-.421.421v1.853h-1.516a.421.421,0,1,0,0,.842h1.937a.4.4,0,0,0,.421-.421V26.021A.4.4,0,0,0,300.123,25.6Z" fill="#7f7f7f"/>
  <path d="M11.452,48a4.369,4.369,0,0,0,4.379-4.463V33.347A1.384,1.384,0,0,0,14.484,32H1.431A1.384,1.384,0,0,0,.084,33.347L0,46.652A1.384,1.384,0,0,0,1.347,48Zm-.421-1.263H1.178V33.262H14.652v9.347a.543.543,0,0,1-.505.505H11.536c-.253,0-.337.168-.253.337-.084.084,1.768,3.284-.253,3.284ZM4.126,38.062,3.115,36.715A.318.318,0,0,1,3.2,36.21a.4.4,0,0,1,.505.084L4.462,37.3l1.684-1.684c.253-.253.421-.337.589-.168a.316.316,0,0,1,0,.5L4.8,38.063c-.084.084-.168.168-.253.168h0a.494.494,0,0,1-.421-.168Zm8.421,3.453a.543.543,0,0,0,.505-.505.485.485,0,0,0-.505-.505h-4.3a.543.543,0,0,0-.505.505.485.485,0,0,0,.505.505Zm0-4.211a.461.461,0,0,0,.505-.505.485.485,0,0,0-.505-.505h-4.3a.543.543,0,0,0-.505.505.485.485,0,0,0,.505.505ZM4.126,42.273l-1.1-1.347a.318.318,0,0,1,.084-.505A.5.5,0,0,1,3.7,40.5l.758,1.011,1.684-1.684c.253-.168.421-.253.589-.084a.316.316,0,0,1,0,.5L4.8,42.274c-.084.084-.168.168-.253.168h0c-.253.084-.337-.084-.421-.168Z" fill="#7f7f7f"/>
  <path d="M285.425,38.461h-.312V37a4.974,4.974,0,0,0-4.818-5H280a4.975,4.975,0,0,0-4.819,5v1.459h-.312A1.013,1.013,0,0,0,274,39.569v7.318A1.017,1.017,0,0,0,274.872,48h10.553a1.017,1.017,0,0,0,.872-1.112V39.569A1.013,1.013,0,0,0,285.425,38.461Zm-4.287,4.76v2.211a.473.473,0,0,1-.465.468h-1.046a.472.472,0,0,1-.465-.468V43.221A1.34,1.34,0,0,1,280,40.942c.073,0,.219,0,.292,0a1.34,1.34,0,0,1,.842,2.279Zm1.921-4.76h-5.82V37a2.91,2.91,0,1,1,5.82,0Z" fill="#7f7f7f"/>
</svg>
