<svg id="063924c2-082b-4c7d-ab29-690ff1608d62" data-name="Layer 2" xmlns="http://www.w3.org/2000/svg" xmlns:xlink="http://www.w3.org/1999/xlink" width="500" height="207">
  <defs>
    <linearGradient id="83088b2a-cb10-44eb-82d5-a081042b431f" x1="105" y1="12" x2="105" y2="2" gradientUnits="userSpaceOnUse">
      <stop offset="0" stop-color="#fff"/>
      <stop offset="1"/>
    </linearGradient>
    <linearGradient id="13e966d5-1ae5-464d-b598-7e3aab61ecb9" x1="105" y1="26" x2="105" y2="16" xlink:href="#83088b2a-cb10-44eb-82d5-a081042b431f"/>
    <linearGradient id="318e9970-b492-4d61-b059-bc7231d3e6d4" x1="121" y1="12" x2="121" y2="2" xlink:href="#83088b2a-cb10-44eb-82d5-a081042b431f"/>
    <linearGradient id="ec0d171e-a0c9-45f6-8272-9666f73b5ac7" x1="121" y1="26" x2="121" y2="16" xlink:href="#83088b2a-cb10-44eb-82d5-a081042b431f"/>
    <linearGradient id="7ec2b9b8-2388-4a7e-8cc3-be302426b324" x1="275.583" y1="10.702" x2="275.583" y2="2.345" xlink:href="#83088b2a-cb10-44eb-82d5-a081042b431f"/>
    <linearGradient id="c0668283-6096-4cc5-b5b3-aaf94ae4d17a" x1="275.583" y1="23.702" x2="275.583" y2="15.345" xlink:href="#83088b2a-cb10-44eb-82d5-a081042b431f"/>
    <linearGradient id="290f59fd-6c72-451a-9c2c-3d4baefc861f" x1="288.583" y1="1.416" x2="288.583" y2="11.631" xlink:href="#83088b2a-cb10-44eb-82d5-a081042b431f"/>
    <linearGradient id="ef0bdd7d-ac42-46a6-988f-a4cfe9f99fca" x1="288.583" y1="14.416" x2="288.583" y2="24.631" xlink:href="#83088b2a-cb10-44eb-82d5-a081042b431f"/>
  </defs>
  <title>DecorationIcons</title>
  <path d="M22.348,15H20V8.081a8,8,0,1,0-16,0V15H2.146C1.035,15,0,15.051,0,16.162V30.3A1.889,1.889,0,0,0,2.146,32h20.2A1.485,1.485,0,0,0,24,30.3V16.162C24,15.051,23.459,15,22.348,15ZM16,15H8V8.068a4,4,0,1,1,8,0V15Z" fill="#adadad"/>
  <path d="M46,0a8,8,0,1,0,8,8A8,8,0,0,0,46,0Zm1.029,13.927a1.532,1.532,0,0,1-.964.319,1.576,1.576,0,0,1-.976-0.315,1.036,1.036,0,0,1-.417-0.88,1.076,1.076,0,0,1,.4-0.84,1.44,1.44,0,0,1,.977-0.346,1.474,1.474,0,0,1,.986.346,1.065,1.065,0,0,1,.408.84A1.043,1.043,0,0,1,47.029,13.927Zm0.9-8.83L47.373,9.023a2.143,2.143,0,0,1-.391,1.074,1.2,1.2,0,0,1-.991.375,1.154,1.154,0,0,1-.978-0.362,2.5,2.5,0,0,1-.391-1.1L44.205,5.192q-0.117-1.115-.117-1.6a1.168,1.168,0,0,1,.567-1.031,2.689,2.689,0,0,1,1.493-.37,1.86,1.86,0,0,1,1.5.474,2.148,2.148,0,0,1,.379,1.365A6.456,6.456,0,0,1,47.934,5.1Z" fill="#e51937"/>
  <path d="M65,0a5,5,0,1,0,5,5A5,5,0,0,0,65,0Zm0.906,8.94a1.369,1.369,0,0,1-.863.287,1.416,1.416,0,0,1-.875-0.283,0.928,0.928,0,0,1-.374-0.789A0.966,0.966,0,0,1,64.15,7.4a1.3,1.3,0,0,1,.877-0.309,1.327,1.327,0,0,1,.885.309,0.957,0.957,0,0,1,.365.753A0.93,0.93,0,0,1,65.906,8.94Zm0.609-5.864L66.074,4.985a1.694,1.694,0,0,1-.31.849,0.942,0.942,0,0,1-.78.295,0.911,0.911,0,0,1-.771-0.286,1.964,1.964,0,0,1-.308-0.87L63.576,3.151c-0.062-.585-0.093-1.007-0.093-1.261a0.922,0.922,0,0,1,.447-0.813A2.124,2.124,0,0,1,65.107.785a1.467,1.467,0,0,1,1.182.374,1.69,1.69,0,0,1,.3,1.076A5.063,5.063,0,0,1,66.516,3.076Z" fill="#e51937"/>
  <path d="M85,0a8,8,0,1,0,8,8A8,8,0,0,0,85,0ZM84.871,13.377a1.3,1.3,0,1,1,1.3-1.3A1.3,1.3,0,0,1,84.871,13.377Zm3.466-6.96A5.421,5.421,0,0,1,87.057,7.7a3.976,3.976,0,0,0-.9.706A3.488,3.488,0,0,0,85.966,9H83V9.27a2.776,2.776,0,0,1,.448-1.033,2.8,2.8,0,0,1,.576-0.715c0.191-.221.711-0.62,1.394-1.186a1.355,1.355,0,0,0,.632-0.915,0.866,0.866,0,0,0-.239-0.668,1.038,1.038,0,0,0-.742-0.239,1.187,1.187,0,0,0-.879.355,1.84,1.84,0,0,0-.421,1.068l-2.411-.3a3.461,3.461,0,0,1,1.014-2.16,3.854,3.854,0,0,1,2.748-.856,4.1,4.1,0,0,1,2.332.6A2.448,2.448,0,0,1,88.641,5.36,2.053,2.053,0,0,1,88.337,6.416Z" fill="#c2c2c2"/>
  <g>
    <g>
      <rect x="98" y="1" width="13" height="13" fill="#fff"/>
      <path d="M111,1V13H99V1h12m1-1H98V14h14V0h0Z" fill="#7f7f7f"/>
    </g>
    <g opacity="0.2">
      <rect x="100" y="2" width="10" height="10" fill="url(#83088b2a-cb10-44eb-82d5-a081042b431f)"/>
    </g>
    <polygon points="104.226 12.836 99.5 6.684 101.596 4.5 104.227 7.844 112.475 1.111 113.5 2.138 104.226 12.836" fill="#7f7f7f"/>
  </g>
  <g>
    <g>
      <rect x="98" y="15" width="13" height="13" fill="#dbdbdb"/>
      <path d="M111,15V27H99V15h12m1-1H98V28h14V14h0Z" fill="#7f7f7f"/>
    </g>
    <g opacity="0.2">
      <rect x="100" y="16" width="10" height="10" fill="url(#13e966d5-1ae5-464d-b598-7e3aab61ecb9)"/>
    </g>
    <polygon points="104.226 26.836 99.5 20.684 101.596 18.5 104.227 21.844 112.475 15.111 113.5 16.138 104.226 26.836" fill="#7f7f7f"/>
  </g>
  <g>
    <g>
      <rect x="115" width="13" height="13" fill="#fff"/>
      <path d="M127,1V13H115V1h12m1-1H114V14h14V0h0Z" fill="#7f7f7f"/>
    </g>
    <g opacity="0.2">
      <rect x="116" y="2" width="10" height="10" fill="url(#318e9970-b492-4d61-b059-bc7231d3e6d4)"/>
    </g>
  </g>
  <g>
    <g>
      <rect x="115" y="14" width="13" height="13" fill="#dbdbdb"/>
      <path d="M127,15V27H115V15h12m1-1H114V28h14V14h0Z" fill="#7f7f7f"/>
    </g>
    <g opacity="0.2">
      <rect x="116" y="16" width="10" height="10" fill="url(#ec0d171e-a0c9-45f6-8272-9666f73b5ac7)"/>
    </g>
  </g>
  <g id="68a667cd-ecb1-4502-b9b1-cd2241a18912" data-name="remove">
    <path d="M138,0a8,8,0,1,0,8,8A8.005,8.005,0,0,0,138,0Zm0,13.875A5.875,5.875,0,1,1,143.875,8,5.878,5.878,0,0,1,138,13.875Zm3.687-7.726L139.828,8l1.859,1.859a0.33,0.33,0,0,1,0,.461l-1.367,1.367a0.33,0.33,0,0,1-.461,0L138,9.828l-1.852,1.859a0.33,0.33,0,0,1-.461,0l-1.375-1.367a0.33,0.33,0,0,1,0-.461L136.172,8l-1.859-1.859a0.33,0.33,0,0,1,0-.461l1.367-1.367a0.33,0.33,0,0,1,.461,0L138,6.172l1.859-1.852a0.317,0.317,0,0,1,.461,0l1.367,1.359A0.34,0.34,0,0,1,141.687,6.149Z" fill="#c2c2c2"/>
  </g>
  <g>
    <path d="M14,33.5A1.5,1.5,0,0,0,12.5,32H1.5A1.5,1.5,0,0,0,0,33.5v13A1.5,1.5,0,0,0,1.5,48h11A1.5,1.5,0,0,0,14,46.5v-13ZM12,34v6H2V34H12ZM2,46V41H12v5H2Z" fill="#7f7f7f"/>
    <polygon points="10 37 4 37 4 35 5 35 5 36 9 36 9 35 10 35 10 37" fill="#7f7f7f"/>
    <polygon points="10 44 4 44 4 42 5 42 5 43 9 43 9 42 10 42 10 44" fill="#7f7f7f"/>
  </g>
  <g>
    <g>
      <path d="M16,79A15,15,0,1,1,31,64,15.017,15.017,0,0,1,16,79Z" fill="#e4e4e4"/>
      <path d="M16,50A14,14,0,1,1,2,64,14.016,14.016,0,0,1,16,50m0-2A16,16,0,1,0,32,64,16,16,0,0,0,16,48h0Z" fill="#aaa"/>
    </g>
    <g id="6860357b-617e-44c8-bd4d-6cbcc5a9b906" data-name="remove_2">
      <path d="M18.777,64l4.013-4.013a0.41,0.41,0,0,0,0-.575L21.1,57.718a0.4,0.4,0,0,0-.569,0l-4.02,4.019-4.02-4.019a0.4,0.4,0,0,0-.569,0l-1.694,1.693a0.412,0.412,0,0,0,0,.575L14.244,64l-4.02,4.02a0.4,0.4,0,0,0,0,.569l1.694,1.694a0.41,0.41,0,0,0,.575,0l4.014-4.013,4.013,4.013a0.411,0.411,0,0,0,.575,0l1.693-1.694a0.409,0.409,0,0,0,0-.575Z" fill="#424242"/>
    </g>
  </g>
  <path d="M56,48A24,24,0,1,0,80,72,24,24,0,0,0,56,48Zm3.086,41.781a4.6,4.6,0,0,1-2.891.956,4.731,4.731,0,0,1-2.93-.944,3.112,3.112,0,0,1-1.253-2.64,3.221,3.221,0,0,1,1.2-2.519,4.31,4.31,0,0,1,2.931-1.039A4.417,4.417,0,0,1,59.1,84.634a3.192,3.192,0,0,1,1.225,2.519A3.134,3.134,0,0,1,59.086,89.781ZM61.8,63.29L60.119,75.066a6.429,6.429,0,0,1-1.174,3.225,3.589,3.589,0,0,1-2.973,1.123,3.465,3.465,0,0,1-2.934-1.087,7.482,7.482,0,0,1-1.173-3.308L50.614,63.577q-0.352-3.344-.352-4.8a3.5,3.5,0,0,1,1.7-3.094,8.071,8.071,0,0,1,4.478-1.11q3.363,0,4.5,1.421a6.448,6.448,0,0,1,1.134,4.1A19.33,19.33,0,0,1,61.8,63.29Z" fill="#e51937"/>
  <path d="M104,48a24,24,0,1,0,24,24A24,24,0,0,0,104,48Zm-0.387,40.131a3.894,3.894,0,1,1,3.893-3.895A3.894,3.894,0,0,1,103.613,88.131Zm10.4-20.881a16.346,16.346,0,0,1-3.84,3.849,10.706,10.706,0,0,0-2.7,2.617A12.107,12.107,0,0,0,106.9,76H99V75.811a8.49,8.49,0,0,1,.845-3.1,7.423,7.423,0,0,1,1.48-2.145,46.787,46.787,0,0,1,4.056-3.558c1.2-.976,1.835-1.875,1.835-2.746a2.611,2.611,0,0,0-.75-2,3.161,3.161,0,0,0-2.242-.719,3.583,3.583,0,0,0-2.646,1.065,5.522,5.522,0,0,0-1.268,3.205l-7.234-.894a10.387,10.387,0,0,1,3.039-6.479c1.768-1.7,4.541-2.567,8.244-2.567a12.3,12.3,0,0,1,7,1.8,7.343,7.343,0,0,1,3.568,6.411A6.17,6.17,0,0,1,114.012,67.25Z" fill="#518bc9"/>
  <path d="M152,48a24,24,0,1,0,24,24A24,24,0,0,0,152,48Zm-5.021,39.344L135.959,73l4.887-5.095,6.136,7.8L166.217,60l2.391,2.392Z" fill="#00457c"/>
  <g>
    <path d="M0.005,115.484c0-.1,0-0.189,0-0.281,0-.8-0.006-1.611.016-2.415a5.564,5.564,0,0,1,1.3-3.361c0.692-.876,1.36-1.772,2.032-2.665a1.565,1.565,0,0,0-.025-2.128q-1.1-1.427-2.2-2.859A5.383,5.383,0,0,1,.009,98.539c-0.018-.813,0-1.626,0-2.44A0.738,0.738,0,0,1,.021,96H12c0,0.183,0,.355,0,0.526-0.009.8,0.006,1.6-.036,2.39a5.266,5.266,0,0,1-1.2,3.011q-1.091,1.392-2.164,2.8a1.522,1.522,0,0,0-.017,1.939q1.113,1.495,2.251,2.97A5.556,5.556,0,0,1,12,113.1c0,0.789,0,1.578,0,2.388H0.005ZM10.144,98.375H1.861a3.288,3.288,0,0,0,.431,1.783c0.27,0.429.595,0.821,0.887,1.235a0.4,0.4,0,0,0,.367.182c1.6-.006,3.2-0.01,4.8,0A0.566,0.566,0,0,0,8.9,101.3a5.373,5.373,0,0,1,.415-0.537A3.579,3.579,0,0,0,10.144,98.375Zm-3.675,11.8a0.771,0.771,0,0,0,.536.862q0.865,0.468,1.7,1a2.143,2.143,0,0,1,.907,1.011,0.16,0.16,0,0,0,.109.088c0.142,0.011.285,0,.436,0a3.2,3.2,0,0,0-.3-1.525c-0.342-.585-0.759-1.123-1.139-1.685-0.758-1.119-1.8-2.039-2.264-3.38v0.458H5.538V106.54a5.286,5.286,0,0,1-1.1,1.874c-0.648.852-1.3,1.7-1.939,2.559a3.47,3.47,0,0,0-.644,2.153c0.085,0,.153,0,0.22.012a0.319,0.319,0,0,0,.383-0.226,1.45,1.45,0,0,1,.459-0.577c0.672-.454,1.36-0.883,2.06-1.291a0.8,0.8,0,0,0,.556-0.873H6.469Z" fill="#fff" fill-rule="evenodd"/>
    <path d="M6.459,108.888v0.676h-0.9v-0.676h0.9Z" fill="#fff" fill-rule="evenodd"/>
    <path d="M6.447,108.267H5.557v-0.683h0.89v0.683Z" fill="#fff" fill-rule="evenodd"/>
  </g>
  <g>
    <rect x="22.867" y="97.874" width="2.984" height="12.97" transform="translate(-66.659 47.791) rotate(-45)" fill="#b9b9b9"/>
    <polygon points="16 104.716 24.716 96 16.001 96.001 16 104.716" fill="#b9b9b9"/>
  </g>
  <g>
    <circle cx="275.5" cy="6.5" r="6.036" fill="#fff"/>
    <circle cx="275.583" cy="6.524" r="4.179" opacity="0.3" fill="url(#7ec2b9b8-2388-4a7e-8cc3-be302426b324)"/>
    <path d="M275.5,13A6.5,6.5,0,1,1,282,6.5,6.508,6.508,0,0,1,275.5,13Zm0-12.071A5.571,5.571,0,1,0,281.071,6.5,5.578,5.578,0,0,0,275.5.929Z" fill="#7f7f7f"/>
  </g>
  <g>
    <circle cx="275.5" cy="19.5" r="6.036" fill="#dbdbdb"/>
    <circle cx="275.583" cy="19.524" r="4.179" opacity="0.2" fill="url(#c0668283-6096-4cc5-b5b3-aaf94ae4d17a)"/>
    <path d="M275.5,26a6.5,6.5,0,1,1,6.5-6.5A6.508,6.508,0,0,1,275.5,26Zm0-12.071a5.571,5.571,0,1,0,5.571,5.571A5.578,5.578,0,0,0,275.5,13.929Z" fill="#7f7f7f"/>
  </g>
  <g>
    <g>
      <circle cx="288.5" cy="6.5" r="6.036" fill="#fff"/>
      <path d="M288.5,13A6.5,6.5,0,1,1,295,6.5,6.508,6.508,0,0,1,288.5,13Zm0-12.071A5.571,5.571,0,1,0,294.071,6.5,5.578,5.578,0,0,0,288.5.929Z" fill="#7f7f7f"/>
    </g>
    <circle cx="288.583" cy="6.524" r="3.25" fill="#2b2b2b"/>
    <circle cx="288.583" cy="6.524" r="5.107" opacity="0.3" fill="url(#290f59fd-6c72-451a-9c2c-3d4baefc861f)"/>
  </g>
  <g>
    <g>
      <circle cx="288.5" cy="19.5" r="6.036" fill="#dbdbdb"/>
      <path d="M288.5,26a6.5,6.5,0,1,1,6.5-6.5A6.508,6.508,0,0,1,288.5,26Zm0-12.071a5.571,5.571,0,1,0,5.571,5.571A5.578,5.578,0,0,0,288.5,13.929Z" fill="#7f7f7f"/>
    </g>
    <circle cx="288.583" cy="19.524" r="3.25" fill="#666"/>
    <circle cx="288.583" cy="19.524" r="5.107" opacity="0.2" fill="url(#ef0bdd7d-ac42-46a6-988f-a4cfe9f99fca)"/>
  </g>
  <g id="c56ada8e-0975-4e4f-9154-133eb231c481" data-name="cogwheel">
    <path d="M63.926,105.03a7.183,7.183,0,0,0,0-2.059l-2.113-.529a5.973,5.973,0,0,0-.6-1.45l1.12-1.866a8.021,8.021,0,0,0-1.458-1.458l-1.866,1.12a5.988,5.988,0,0,0-1.451-.6L57.03,96.074a7.228,7.228,0,0,0-2.06,0l-0.528,2.113a5.972,5.972,0,0,0-1.449.6l-1.866-1.12a7.989,7.989,0,0,0-1.459,1.458l1.12,1.865a5.945,5.945,0,0,0-.6,1.451l-2.113.529a7.174,7.174,0,0,0,0,2.06l2.113,0.529a5.946,5.946,0,0,0,.6,1.45l-1.12,1.866a8.02,8.02,0,0,0,1.458,1.459l1.866-1.12a5.988,5.988,0,0,0,1.451.6l0.528,2.113a7.238,7.238,0,0,0,2.06,0l0.528-2.113a5.965,5.965,0,0,0,1.451-.6l1.866,1.12a8.05,8.05,0,0,0,1.458-1.458l-1.121-1.866a5.976,5.976,0,0,0,.6-1.45ZM56,106.8a2.8,2.8,0,1,1,2.8-2.8A2.8,2.8,0,0,1,56,106.8Z" fill="#b9b9b9"/>
  </g>
  <g id="65acaf46-13df-4531-b671-04d679a10dc5" data-name="refresh">
    <path d="M65.776,103.936L64,103.493a7.565,7.565,0,0,1,13.213-4.961l0.029,0.035L78.48,97.56c0.135-.11.25-0.057,0.257,0.116l0.159,4.1a0.224,0.224,0,0,1-.294.239l-3.984-1c-0.169-.042-0.2-0.166-0.062-0.275l1.211-.984A5.673,5.673,0,0,0,65.9,103.95Zm13.361-.218-1.9-.474a5.673,5.673,0,0,1-9.868,4.158l1.211-.985c0.133-.109.107-0.233-0.063-0.275l-3.983-1a0.224,0.224,0,0,0-.294.239l0.158,4.1c0.007,0.174.124,0.227,0.259,0.117L65.9,108.6l0.03,0.035A7.564,7.564,0,0,0,79.137,103.718Z" fill="#b9b9b9"/>
  </g>
  <g>
    <g>
      <rect x="303" y="1" width="2" height="2" fill="#ccc"/>
      <rect x="303" y="5" width="2" height="2" fill="#ccc"/>
      <rect x="303" y="9" width="2" height="2" fill="#ccc"/>
      <rect x="303" y="13" width="2" height="2" fill="#ccc"/>
    </g>
    <g>
      <rect x="299" y="1" width="2" height="2" fill="#ccc"/>
      <rect x="299" y="5" width="2" height="2" fill="#ccc"/>
      <rect x="299" y="9" width="2" height="2" fill="#ccc"/>
      <rect x="299" y="13" width="2" height="2" fill="#ccc"/>
    </g>
  </g>
  <g>
    <g>
      <rect x="309" y="1" width="2" height="2" fill="#8c9dbd"/>
      <rect x="309" y="5" width="2" height="2" fill="#8c9dbd"/>
      <rect x="309" y="9" width="2" height="2" fill="#8c9dbd"/>
      <rect x="309" y="13" width="2" height="2" fill="#8c9dbd"/>
    </g>
    <g>
      <rect x="305" y="1" width="2" height="2" fill="#8c9dbd"/>
      <rect x="305" y="5" width="2" height="2" fill="#8c9dbd"/>
      <rect x="305" y="9" width="2" height="2" fill="#8c9dbd"/>
      <rect x="305" y="13" width="2" height="2" fill="#8c9dbd"/>
    </g>
  </g>
  <g id="17ed7c4a-ba03-43f2-af94-1ab5ae8f2613" data-name="remove">
    <path d="M39,96a7,7,0,1,0,7,7A7,7,0,0,0,39,96Zm0,12.141A5.141,5.141,0,1,1,44.141,103,5.143,5.143,0,0,1,39,108.141Zm3.227-6.761L40.6,103l1.627,1.627a0.289,0.289,0,0,1,0,.4l-1.2,1.2a0.289,0.289,0,0,1-.4,0L39,104.6l-1.62,1.627a0.289,0.289,0,0,1-.4,0l-1.2-1.2a0.289,0.289,0,0,1,0-.4L37.4,103l-1.627-1.627a0.289,0.289,0,0,1,0-.4l1.2-1.2a0.289,0.289,0,0,1,.4,0L39,101.4l1.627-1.62a0.277,0.277,0,0,1,.4,0l1.2,1.189A0.3,0.3,0,0,1,42.227,101.38Z" fill="#b9b9b9"/>
  </g>
  <g>
    <path d="M342.13,18.359l2.4-.268A9.413,9.413,0,0,1,351.6,4.655l1.038-2.387-0.71-2.256a13.991,13.991,0,0,0-11.478,20.164Z" fill="#e51937"/>
    <path d="M354.594,2.37l-0.957,2.2a9.42,9.42,0,0,1,8.13,12.85l1.546,2.116,2.287,0.523A13.986,13.986,0,0,0,353.849,0Z" fill="#00457c"/>
    <path d="M362.238,21.17l-1.423-1.947a9.41,9.41,0,0,1-15.2.589l-2.6.291-1.59,1.725a13.981,13.981,0,0,0,23.226-.107Z" fill="#518bc9"/>
    <g>
      <polygon points="352.233 13.38 352.939 11.88 355.166 17.661 357.764 17.661 354.465 9.375 351.396 9.375 349.248 15.022 352.233 13.38 352.233 13.38" fill="#00457c" fill-rule="evenodd"/>
      <polygon points="360.151 10.012 348.995 16.093 346.341 14.026 345.849 14.026 348.087 18.828 360.151 10.692 360.151 10.012" fill="#e51937"/>
    </g>
  </g>
  <g>
    <path d="M372.683,15.752l2.057-.23A8.08,8.08,0,0,1,380.8,3.994l0.889-2.048L381.085,0.01a12.008,12.008,0,0,0-9.838,17.3Z" fill="#fff"/>
    <path d="M383.366,2.034l-0.82,1.889a8.085,8.085,0,0,1,6.968,11.026l1.325,1.815,1.96,0.449A12,12,0,0,0,382.727,0Z" fill="#fff"/>
    <path d="M389.918,18.164l-1.219-1.67A8.061,8.061,0,0,1,375.667,17l-2.228.249-1.363,1.48a11.977,11.977,0,0,0,19.908-.091Z" fill="#fff"/>
    <g>
      <polygon points="381.343 11.481 381.948 10.194 383.856 15.154 386.083 15.154 383.256 8.044 380.625 8.044 378.784 12.89 381.343 11.481 381.343 11.481" fill="#fff" fill-rule="evenodd"/>
      <polygon points="388.13 8.591 378.567 13.808 376.292 12.035 375.87 12.035 377.789 16.155 388.13 9.175 388.13 8.591" fill="#fff"/>
    </g>
  </g>
  <g>
    <path d="M192.42,48H180.58A2.583,2.583,0,0,0,178,50.579V73.006a2.583,2.583,0,0,0,2.58,2.578h11.84A2.583,2.583,0,0,0,195,73.006V50.579A2.583,2.583,0,0,0,192.42,48ZM186.5,74.828a1.29,1.29,0,1,1,1.293-1.292A1.289,1.289,0,0,1,186.5,74.828Zm6.69-3.362H179.813V49.813h13.374V71.467Z" fill="#fff"/>
    <g>
      <path d="M187.593,58.451a1.072,1.072,0,1,1-1.071-1.073,1.073,1.073,0,0,1,1.071,1.073h0Zm0,0" fill="#fff"/>
      <g>
        <path d="M189.085,55.867a0.443,0.443,0,0,0-.049-0.048l-0.048-.045a0.131,0.131,0,0,0-.028-0.022,3.5,3.5,0,0,0-4.832.112l-0.156.158-0.216.214a0.673,0.673,0,0,0,.952.952l0.371-.369a2.163,2.163,0,0,1,3.053,0l0.268,0.259a0.667,0.667,0,0,0,.944-0.944Zm0,0" fill="#fff"/>
        <path d="M190.912,54.539l-0.222-.222,0,0-0.177-.177a0.684,0.684,0,0,0-.1-0.08,5.843,5.843,0,0,0-7.89.181c-0.011.011-.022,0.018-0.032,0.028l-0.4.4a0.614,0.614,0,0,0,.868.868l0.4-.4,0.009-.008a4.61,4.61,0,0,1,6.363-.035l0.316,0.317a0.614,0.614,0,0,0,.868-0.87h0Zm0,0" fill="#fff"/>
      </g>
    </g>
    <polygon points="182.743 69.382 181.1 65.855 181.462 65.855 183.409 67.373 186.785 65.531 186.303 64.279 185.786 65.38 183.595 66.586 185.171 62.438 187.423 62.438 188.32 64.693 192 62.686 191.999 63.134 188.61 65.422 189.844 68.525 187.938 68.525 187.128 66.422 182.743 69.382" fill="#fff"/>
  </g>
</svg>
