<?xml version="1.0" encoding="utf-8"?>
<!-- Generated by IcoMoon.io -->
<!DOCTYPE svg PUBLIC "-//W3C//DTD SVG 1.1//EN" "http://www.w3.org/Graphics/SVG/1.1/DTD/svg11.dtd">
<svg version="1.1" xmlns="http://www.w3.org/2000/svg" xmlns:xlink="http://www.w3.org/1999/xlink" width="87" height="41" viewBox="0 0 87 41">
<svg id="icon-Start_small" width="18" height="18" viewBox="0 0 18 18" x="0" y="0">
<path fill="#bbb" d="M9 18v0c4.95 0 9-4.050 9-9s-4.050-9-9-9-9 4.050-9 9 4.050 9 9 9v0zM6.3 12.857v-7.714c2.186 1.286 4.307 2.571 6.493 3.857-2.186 1.286-4.307 2.571-6.493 3.857z"></path>
</svg>
<svg id="icon-Pause_small" width="18" height="18" viewBox="0 0 18 18" x="23" y="0">
<path fill="#bbb" d="M9 18c4.95 0 9-4.050 9-9s-4.050-9-9-9-9 4.050-9 9 4.050 9 9 9zM5.786 12.536v-6.75h2.25v6.75h-2.25zM9.836 12.536v-6.75h2.25v6.75h-2.25z"></path>
</svg>
<svg id="icon-Record_small" width="18" height="18" viewBox="0 0 18 18" x="46" y="0">
<path fill="#bbb" d="M9 16.586v0c4.179 0 7.586-3.407 7.586-7.586s-3.407-7.586-7.586-7.586-7.586 3.407-7.586 7.586 3.407 7.586 7.586 7.586v0zM9 18v0c-4.95 0-9-4.050-9-9s4.050-9 9-9 9 4.050 9 9-4.050 9-9 9v0z"></path>
<path fill="#65b0ef" d="M9 5.786c0.836 0 1.671 0.321 2.25 0.964 0.579 0.579 0.964 1.414 0.964 2.25s-0.321 1.671-0.964 2.25c-0.579 0.643-1.414 0.964-2.25 0.964s-1.671-0.321-2.25-0.964c-0.643-0.579-0.964-1.414-0.964-2.25s0.321-1.671 0.964-2.25c0.579-0.643 1.414-0.964 2.25-0.964v0z"></path>
</svg>
<svg id="icon-Clear_small" width="18" height="18" viewBox="0 0 18 18" x="69" y="0">
<path fill="#bbb" d="M9 16.586v0c4.179 0 7.586-3.407 7.586-7.586s-3.407-7.586-7.586-7.586-7.586 3.407-7.586 7.586 3.407 7.586 7.586 7.586v0zM9 18v0c-4.95 0-9-4.050-9-9s4.050-9 9-9 9 4.050 9 9-4.050 9-9 9v0z"></path>
<path fill="#e6455a" d="M8.871 10.286l2.379 2.379 1.414-1.414-2.379-2.314 2.379-2.379-1.414-1.414-2.379 2.378-2.314-2.378-1.414 1.414 2.378 2.379-2.378 2.314 1.414 1.414z"></path>
</svg>
</svg>
