<?xml version="1.0" encoding="utf-8"?>
<!-- Generator: Adobe Illustrator 18.1.0, SVG Export Plug-In . SVG Version: 6.00 Build 0)  -->
<!DOCTYPE svg PUBLIC "-//W3C//DTD SVG 1.1//EN" "http://www.w3.org/Graphics/SVG/1.1/DTD/svg11.dtd">
<svg version="1.1" id="Layer_1" xmlns="http://www.w3.org/2000/svg" xmlns:xlink="http://www.w3.org/1999/xlink" width="48" height="32">
<style type="text/css">
	.st0{fill:#C0C0C0;}
	.st1{fill:#FFFFFF;}
</style>
<path class="st0" d="M13.9395,18.9395L12.061,17.061C11.4775,16.4775,10.3252,16,9.5,16h-7C1.6748,16,1,16.6748,1,17.5v13
	C1,31.3252,1.6748,32,2.5,32h11c0.8252,0,1.5-0.6748,1.5-1.5v-9C15,20.6748,14.5225,19.5225,13.9395,18.9395z M10,18.1182
	c0.0347,0.0122,0.0693,0.0258,0.1055,0.041c0.2822,0.1167,0.478,0.2524,0.541,0.3154l1.8784,1.8784
	c0.063,0.063,0.1987,0.2583,0.3154,0.541c0.0152,0.0357,0.0288,0.0718,0.041,0.1055L10,21V18.1182z M13,30H3V18h6v4h4V30z M4,24h8v1
	H4V24z M4,26h8v1H4V26z M4,28h8v1H4V28z"/>
<path class="st1" d="M13.9395,2.9395L12.061,1.061C11.4775,0.4775,10.3252,0,9.5,0h-7C1.6748,0,1,0.6748,1,1.5v13
	C1,15.3252,1.6748,16,2.5,16h11c0.8252,0,1.5-0.6748,1.5-1.5v-9C15,4.6748,14.5225,3.5225,13.9395,2.9395z M10,2.1182
	c0.0347,0.0122,0.0693,0.0258,0.1055,0.041c0.2822,0.1167,0.478,0.2524,0.541,0.3154l1.8784,1.8784
	c0.063,0.063,0.1987,0.2583,0.3154,0.541c0.0152,0.0357,0.0288,0.0718,0.041,0.1055L10,5V2.1182z M13,14H3V2h6v4h4V14z M4,8h8v1H4V8
	z M4,10h8v1H4V10z M4,12h8v1H4V12z"/>
<g>
	<g>
		<path class="st0" d="M28.9961,18c0.002,0,0.002,0.0019,0.0039,0.0029v11.9932C28.9981,29.997,28.9981,29.998,28.9961,30h-9.9922
			C19.002,29.998,19,29.997,19,29.9961V18.0029C19,18.0019,19.002,18,19.0039,18H17v12c0,1.0996,0.9004,2,2,2h10
			c1.0996,0,2-0.9004,2-2V18H28.9961z M26,18v-1c0-0.5528-0.4473-1-1-1h-2c-0.5527,0-1,0.4472-1,1v1h-2v2h8v-2H26z"/>
	</g>
</g>
<g>
	<g>
		<path class="st1" d="M28.9961,2c0.002,0,0.002,0.0019,0.0039,0.0029v11.9932C28.9981,13.997,28.9981,13.998,28.9961,14h-9.9922
			C19.002,13.998,19,13.997,19,13.9961V2.0029C19,2.0019,19.002,2,19.0039,2H17v12c0,1.0996,0.9004,2,2,2h10c1.0996,0,2-0.9004,2-2
			V2H28.9961z M26,2V1c0-0.5528-0.4473-1-1-1h-2c-0.5527,0-1,0.4472-1,1v1h-2v2h8V2H26z"/>
	</g>
</g>
<g>
	<path class="st0" d="M33,18h2.5279l4.7349,6.0003L35.5279,30h-2.4924l4.7356-5.9997L33,18z M39.7366,18h2.5279L47,24.0003
		L42.2644,30H39.772l4.7356-5.9997L39.7366,18z"/>
</g>
<g>
	<path class="st1" d="M33,2h2.5279l4.7349,6.0003L35.5279,14h-2.4924l4.7356-5.9997L33,2z M39.7366,2h2.5279L47,8.0003L42.2644,14
		H39.772l4.7356-5.9997L39.7366,2z"/>
</g>
</svg>
